<svg xmlns="http://www.w3.org/2000/svg" xmlns:xlink="http://www.w3.org/1999/xlink" width="157" zoomAndPan="magnify" viewBox="0 0 117.75 36.750001" height="49" preserveAspectRatio="xMidYMid meet" version="1.0"><defs><g/><clipPath id="2a78fc3b10"><path d="M 12 3.144531 L 29.324219 3.144531 L 29.324219 16 L 12 16 Z M 12 3.144531 " clip-rule="nonzero"/></clipPath><clipPath id="f541e699dd"><path d="M 18 3.144531 L 21 3.144531 L 21 7 L 18 7 Z M 18 3.144531 " clip-rule="nonzero"/></clipPath><clipPath id="6ab5316b3a"><path d="M 21 3.144531 L 24 3.144531 L 24 9 L 21 9 Z M 21 3.144531 " clip-rule="nonzero"/></clipPath><clipPath id="92e3eafc8d"><path d="M 0.273438 7 L 26 7 L 26 33.6875 L 0.273438 33.6875 Z M 0.273438 7 " clip-rule="nonzero"/></clipPath><clipPath id="b32f8744f2"><rect x="0" width="89" y="0" height="22"/></clipPath></defs><g clip-path="url(#2a78fc3b10)"><path fill="#ff5e14" d="M 26.875 12.203125 C 26.792969 12.085938 26.066406 11.492188 24.851562 11.242188 C 24.160156 11.101562 23.378906 11.070312 22.703125 11.300781 C 22.460938 11.382812 22.242188 11.507812 22.027344 11.648438 C 22.492188 11.839844 23.292969 12.316406 23.695312 12.613281 C 25.46875 13.921875 25.734375 15.371094 26.636719 15.394531 C 26.496094 15.441406 26.351562 15.464844 26.214844 15.503906 L 25.765625 15.65625 C 25.367188 15.765625 24.84375 15.832031 24.4375 15.738281 C 24.777344 15.617188 25.054688 15.472656 25.257812 15.167969 C 25.203125 15.003906 24.464844 13.769531 23.136719 13.074219 C 22.300781 12.640625 21.414062 12.578125 20.519531 12.855469 C 20.53125 12.734375 20.515625 12.605469 20.484375 12.484375 C 20.367188 12.058594 20.007812 11.839844 19.648438 11.636719 L 21.09375 11.5625 C 20.28125 11.476562 19.453125 11.601562 18.636719 11.554688 C 18.820312 11.484375 18.996094 11.386719 19.167969 11.300781 C 19.351562 11.207031 19.652344 11.082031 19.609375 10.867188 C 19.597656 10.796875 19.519531 10.738281 19.460938 10.703125 C 19.289062 10.59375 19.046875 10.566406 18.851562 10.542969 C 17.824219 10.417969 16.839844 10.601562 15.84375 10.847656 C 15.953125 10.738281 16.097656 10.652344 16.238281 10.554688 C 17.039062 10 17.921875 9.628906 18.847656 9.339844 C 19.980469 8.988281 20.265625 9.003906 21.261719 9.03125 C 21.191406 8.996094 21.105469 8.996094 20.644531 8.960938 C 20.339844 8.941406 20.59375 9.011719 18.972656 8.414062 C 16.535156 7.453125 17.207031 7.746094 15.90625 7.09375 C 15.707031 6.984375 15.519531 6.851562 15.335938 6.722656 C 14.453125 6.097656 13.707031 5.304688 13.222656 4.328125 C 13.125 4.128906 13.023438 3.921875 12.957031 3.707031 C 13.148438 3.933594 13.324219 4.3125 13.820312 4.828125 C 15.429688 6.515625 17.363281 7.046875 19.519531 7.703125 C 20.179688 7.878906 20.855469 8.007812 21.503906 8.226562 C 22.21875 8.472656 22.785156 8.785156 23.726562 9.273438 C 24.164062 9.472656 24.753906 9.484375 24.925781 9.546875 C 25.171875 9.644531 25.390625 10.160156 25.558594 10.375 C 25.523438 10.089844 25.335938 9.660156 25.105469 9.472656 C 24.953125 9.351562 24.652344 9.34375 24.460938 9.304688 C 23.96875 9.203125 23.589844 8.957031 23.085938 8.699219 C 21.628906 7.957031 21.050781 7.894531 20.335938 7.699219 C 18.203125 7.058594 17.5 6.871094 16.820312 6.570312 C 16.777344 5.796875 16.199219 5.214844 15.863281 4.546875 C 15.632812 4.09375 15.503906 3.640625 15.417969 3.144531 C 15.605469 3.511719 15.785156 3.871094 16.027344 4.210938 C 16.964844 5.53125 18.429688 6.367188 19.945312 6.863281 C 20.550781 7.058594 21.179688 7.191406 21.777344 7.40625 L 23.644531 8.171875 C 25.308594 8.957031 24.742188 8.707031 26.152344 9.289062 C 26.332031 9.359375 26.523438 9.421875 26.703125 9.5 L 25.71875 9.488281 C 26.183594 10.207031 26.824219 10.785156 27.554688 11.230469 C 27.867188 11.421875 28.195312 11.59375 28.539062 11.71875 C 28.722656 11.511719 28.808594 11.332031 28.789062 11.054688 C 28.773438 10.808594 28.6875 10.566406 28.613281 10.335938 C 29.132812 10.9375 29.453125 11.804688 29.40625 12.605469 C 29.367188 13.273438 28.84375 13.828125 28.363281 14.242188 C 28.226562 14.355469 28.058594 14.511719 27.898438 14.582031 C 28.160156 14.191406 28.304688 13.757812 28.214844 13.285156 C 28.15625 12.976562 28.003906 12.75 27.804688 12.511719 C 27.800781 12.839844 27.804688 13.230469 27.304688 13.597656 C 27.3125 13.539062 27.492188 13.089844 27.316406 12.742188 C 27.253906 12.621094 27.121094 12.398438 26.988281 12.363281 C 26.953125 12.351562 26.925781 12.332031 26.898438 12.316406 C 26.875 12.53125 26.839844 12.738281 26.765625 12.941406 C 26.707031 12.835938 26.652344 12.726562 26.574219 12.628906 C 26.011719 11.929688 24.714844 11.503906 23.742188 11.871094 L 23.734375 11.882812 C 24.34375 12.394531 24.304688 12.398438 24.988281 13.273438 C 25.082031 13.394531 25.652344 14.230469 25.722656 14.273438 C 25.75 14.289062 26 14.273438 26.035156 14.269531 C 26.179688 14.253906 26.316406 14.222656 26.449219 14.171875 L 26.214844 14.707031 C 26.300781 14.707031 26.390625 14.710938 26.476562 14.699219 C 26.785156 14.65625 27.136719 14.484375 27.394531 14.308594 C 27.476562 14.253906 27.578125 14.140625 27.664062 14.105469 C 27.640625 14.164062 27.59375 14.230469 27.558594 14.285156 C 27.386719 14.570312 27.167969 14.800781 26.929688 15.035156 C 27.066406 15.058594 27.253906 15.054688 27.390625 15.039062 C 27.542969 15.019531 27.601562 14.996094 27.769531 14.941406 C 27.585938 15.089844 27.363281 15.203125 27.132812 15.261719 C 26.953125 15.304688 26.785156 15.300781 26.601562 15.269531 C 25.570312 15.078125 25.425781 13.917969 24.152344 12.761719 C 23.441406 12.121094 22.5625 11.789062 22.386719 11.683594 C 23.472656 11.117188 24.867188 11.292969 25.992188 11.761719 L 26.875 12.203125 C 26.894531 12.222656 26.886719 12.214844 26.90625 12.230469 C 26.886719 12.214844 26.894531 12.222656 26.875 12.203125 Z M 26.503906 11.214844 L 26.519531 11.226562 C 26.28125 11.042969 25.539062 10.5625 25.46875 10.558594 C 25.425781 10.558594 25.480469 10.558594 24.933594 10.621094 C 24.421875 10.667969 23.800781 10.570312 23.398438 10.226562 C 22.921875 9.828125 22.964844 9.238281 22.917969 9.128906 C 22.910156 9.105469 22.867188 9.066406 22.847656 9.046875 L 22.816406 9.046875 C 22.824219 9.332031 22.742188 9.726562 23.152344 10.125 C 23.628906 10.589844 24.261719 10.636719 24.882812 10.742188 C 25.152344 10.789062 25.417969 10.851562 25.683594 10.921875 C 26.242188 11.074219 26.363281 11.195312 26.503906 11.214844 Z M 23.648438 9.492188 C 23.589844 9.640625 23.75 10.058594 24.164062 10.210938 C 24.519531 10.339844 24.953125 10.320312 25.324219 10.332031 C 24.871094 9.417969 24.570312 9.851562 23.832031 9.546875 C 23.773438 9.523438 23.710938 9.484375 23.648438 9.492188 Z M 17.441406 10.183594 C 17.351562 10.207031 17.242188 10.226562 17.160156 10.265625 C 17.363281 10.265625 17.578125 10.210938 17.78125 10.183594 C 19.261719 10.019531 18.472656 10.058594 21.375 10.027344 C 21.101562 9.953125 20.792969 9.949219 20.507812 9.933594 C 19.472656 9.875 18.5 9.898438 17.441406 10.183594 Z M 21.484375 10.617188 C 20.9375 10.695312 20.363281 10.804688 19.859375 11.039062 C 19.78125 11.074219 19.6875 11.109375 19.621094 11.164062 C 19.765625 11.152344 20.351562 10.851562 21.617188 10.621094 C 21.578125 10.59375 21.527344 10.613281 21.484375 10.617188 Z M 28.710938 12.210938 C 28.648438 12.238281 28.605469 12.261719 28.578125 12.324219 C 28.527344 12.441406 28.648438 12.691406 28.679688 12.808594 C 28.695312 12.871094 28.691406 12.941406 28.71875 13 L 28.761719 12.964844 C 28.941406 12.742188 29.085938 12.390625 28.851562 12.230469 C 28.800781 12.195312 28.769531 12.199219 28.710938 12.210938 Z M 28.710938 12.210938 " fill-opacity="1" fill-rule="nonzero"/></g><g clip-path="url(#f541e699dd)"><path fill="#ff5e14" d="M 20.070312 6.675781 L 19.019531 6.226562 C 18.902344 5.507812 18.917969 4.667969 19.191406 3.984375 C 19.289062 3.75 19.417969 3.539062 19.5625 3.332031 L 19.464844 3.832031 C 19.355469 4.964844 19.753906 5.925781 20.472656 6.785156 Z M 20.070312 6.675781 " fill-opacity="1" fill-rule="nonzero"/></g><g clip-path="url(#6ab5316b3a)"><path fill="#ff5e14" d="M 21.523438 7.085938 C 21.433594 6.773438 21.335938 6.464844 21.296875 6.140625 C 21.183594 5.230469 21.339844 4.136719 21.914062 3.398438 C 21.898438 3.480469 21.871094 3.558594 21.855469 3.640625 C 21.78125 3.988281 21.769531 4.667969 21.886719 5.140625 C 22.042969 5.753906 22.40625 6.304688 22.777344 6.808594 C 23.082031 7.226562 23.410156 7.625 23.757812 8.003906 C 23.285156 7.773438 23.707031 7.953125 21.523438 7.085938 Z M 21.523438 7.085938 " fill-opacity="1" fill-rule="nonzero"/></g><path fill="#ff5e14" d="M 10.640625 14.882812 C 10.257812 14.417969 9.738281 14.417969 9.136719 14.449219 C 9.335938 14.347656 9.507812 14.222656 9.636719 14.039062 C 10 13.539062 9.984375 12.636719 10.117188 11.933594 C 10.507812 9.84375 12.5625 8.324219 14.601562 7.652344 C 15.023438 7.515625 15.453125 7.441406 15.878906 7.320312 L 19.496094 8.902344 L 19.203125 8.960938 C 19.171875 8.96875 19.117188 8.988281 19.089844 8.988281 C 19.011719 8.984375 19.035156 8.890625 18.039062 8.789062 C 15.839844 8.5625 13.285156 9.121094 11.914062 10.875 C 11.152344 11.847656 10.582031 13.378906 10.640625 14.882812 Z M 10.640625 14.882812 " fill-opacity="1" fill-rule="nonzero"/><g clip-path="url(#92e3eafc8d)"><path fill="#ff5e14" d="M 0.289062 9.097656 C 0.378906 9.027344 0.507812 8.984375 0.613281 8.941406 C 1.011719 8.765625 1.425781 8.609375 1.84375 8.480469 C 4.578125 7.632812 7.394531 7.304688 10.804688 7.753906 L 12.757812 8.101562 L 11.375 8.964844 C 11.089844 9.15625 11 9.21875 10.972656 9.21875 C 10.914062 9.222656 8.589844 8.628906 6.503906 8.746094 C 6.296875 8.757812 6.054688 8.765625 5.851562 8.808594 C 6.816406 8.871094 8.636719 9.300781 10.199219 10.109375 C 9.917969 10.589844 9.667969 11.042969 9.503906 11.578125 C 9.226562 12.472656 9.300781 13.59375 8.464844 14.394531 C 7.960938 14.878906 7.308594 15.226562 6.710938 15.585938 C 7.398438 15.398438 8.09375 15.21875 8.804688 15.164062 C 9.226562 15.132812 9.519531 15.125 9.867188 15.320312 C 10.453125 15.648438 10.808594 16.328125 10.976562 16.957031 C 11.121094 17.476562 11.132812 18.074219 10.859375 18.554688 C 10.378906 19.402344 9.296875 19.605469 7.460938 20.164062 C 7.601562 20.15625 7.738281 20.128906 7.875 20.109375 C 8.605469 20.054688 8.917969 20.011719 9.769531 20.082031 C 10.316406 20.128906 11.015625 20.191406 11.433594 20.585938 C 11.535156 20.679688 11.714844 20.894531 11.710938 21.042969 C 11.707031 21.171875 11.523438 21.535156 11.433594 21.683594 C 10.246094 23.726562 7.695312 25.613281 7.613281 25.699219 C 8.410156 25.398438 9.367188 25.097656 10.191406 25.472656 C 10.542969 25.632812 10.832031 25.875 10.96875 26.246094 C 11.128906 26.691406 11.0625 27.203125 10.859375 27.625 L 10.746094 27.847656 C 10.855469 27.792969 10.859375 27.785156 11.695312 27.230469 C 13.378906 26.066406 14.515625 24.75 15.136719 22.765625 C 15.597656 21.296875 15.53125 19.699219 15.199219 18.214844 C 14.824219 16.519531 14.328125 15.644531 14.214844 14.800781 C 14.097656 13.941406 14.371094 12.984375 14.988281 12.363281 C 15.761719 11.585938 17.210938 11.214844 18.675781 11.675781 C 19.21875 11.847656 19.894531 12.160156 20.167969 12.691406 C 20.246094 12.84375 20.28125 12.988281 20.304688 13.160156 C 18.6875 12.371094 17.050781 12.328125 16.324219 12.582031 C 15.902344 12.726562 15.550781 13.035156 15.359375 13.4375 C 14.789062 14.636719 15.828125 16.066406 16.265625 18.074219 C 16.722656 20.167969 16.550781 22.507812 15.632812 24.453125 C 14.855469 26.101562 13.605469 27.160156 12.050781 28.152344 C 11.632812 28.414062 11.203125 28.695312 10.753906 28.898438 C 14.78125 29.496094 18.234375 29.964844 20.433594 28.332031 C 21.25 27.726562 21.785156 26.859375 21.929688 25.84375 C 22.042969 25.054688 21.925781 24.308594 21.4375 23.664062 C 20.585938 22.539062 18.824219 22.179688 17.421875 21.992188 L 16.597656 21.914062 C 16.773438 20.054688 16.691406 19.671875 16.589844 18.703125 C 16.574219 18.59375 16.546875 18.480469 16.542969 18.371094 C 17.640625 18.707031 19.992188 17.882812 20.453125 16.316406 C 20.621094 15.746094 20.511719 15.054688 20.226562 14.539062 C 19.632812 13.476562 18.039062 12.902344 16.820312 12.800781 C 17.171875 12.753906 17.519531 12.714844 17.871094 12.726562 C 18.691406 12.75 19.90625 13.066406 20.78125 13.730469 C 22.117188 14.746094 22.171875 16.535156 21.128906 17.886719 C 20.40625 18.824219 19.328125 19.503906 18.28125 20.035156 L 17.679688 20.3125 C 17.589844 20.351562 17.441406 20.394531 17.363281 20.449219 L 17.328125 20.464844 L 17.363281 20.449219 C 17.625 20.402344 17.910156 20.296875 18.164062 20.203125 C 22.414062 18.6875 22.835938 15.3125 21.277344 13.828125 C 21.007812 13.574219 20.65625 13.363281 20.339844 13.171875 C 20.445312 13.15625 20.523438 13.117188 20.621094 13.082031 C 21.386719 12.8125 22.414062 12.894531 23.164062 13.382812 C 23.964844 13.902344 24.09375 14.675781 24.039062 15.691406 C 23.898438 18.332031 22.265625 19.214844 21.878906 19.546875 C 23.140625 20.105469 24.222656 20.890625 24.980469 22.054688 C 25.429688 22.742188 25.664062 23.335938 25.796875 24.253906 C 25.984375 25.570312 25.824219 26.890625 25.289062 28.109375 C 24.652344 29.550781 23.566406 30.804688 22.203125 31.601562 C 19.914062 32.945312 16.96875 32.960938 14.351562 32.519531 L 11.140625 31.816406 C 8.839844 31.230469 5.027344 30.011719 2.222656 31.714844 C 1.570312 32.109375 0.953125 32.691406 0.558594 33.347656 C 0.714844 32.058594 1.546875 30.898438 2.550781 30.109375 C 4.226562 28.800781 6.371094 28.582031 8.492188 28.648438 C 8.917969 28.6875 8.886719 28.6875 8.894531 28.6875 C 8.941406 28.664062 9.03125 28.558594 9.070312 28.519531 C 9.441406 28.152344 9.875 27.632812 9.9375 27.09375 C 10.070312 26.003906 8.871094 26.207031 7.804688 26.496094 C 5.929688 27 4.5 27.753906 3.085938 28.472656 C 2.976562 28.527344 2.816406 28.640625 2.699219 28.65625 C 2.804688 28.519531 5.539062 26.597656 6.953125 24.335938 C 7.277344 23.816406 7.566406 23.226562 7.519531 22.597656 C 7.46875 21.90625 6.957031 21.414062 6.300781 21.195312 C 5.585938 20.953125 4.761719 20.945312 4.015625 20.957031 C 3.75 20.957031 3.488281 20.957031 3.222656 20.980469 C 4.480469 20.460938 6.324219 19.757812 7.402344 18.320312 C 7.707031 17.910156 7.988281 17.425781 7.769531 16.957031 C 7.644531 16.691406 7.398438 16.5 7.125 16.402344 C 6.480469 16.179688 5.660156 16.453125 5.070312 16.726562 C 4.949219 16.785156 4.886719 16.847656 4.738281 16.914062 C 4.757812 16.855469 4.84375 16.773438 4.882812 16.722656 C 5.933594 15.375 6.960938 13.851562 6.621094 12.164062 C 6.433594 11.222656 5.824219 10.390625 5.03125 9.855469 C 3.6875 8.957031 1.847656 8.789062 0.289062 9.097656 Z M 3.472656 30.492188 L 3.503906 30.480469 C 3.558594 30.480469 3.640625 30.441406 3.695312 30.421875 C 4.21875 30.246094 3.988281 30.316406 4.726562 30.109375 C 7.425781 29.464844 10.667969 30.183594 13.808594 30.710938 L 16.085938 31.046875 C 17.082031 31.148438 18.082031 31.117188 19.058594 30.882812 C 20.03125 30.644531 21.230469 30.132812 22.09375 29.429688 C 23.128906 28.582031 23.941406 27.4375 24.074219 26.082031 C 24.175781 25.054688 23.820312 23.660156 23.105469 22.792969 C 22.035156 21.488281 20 20.808594 18.339844 20.644531 C 18.398438 20.6875 19.261719 20.765625 20.636719 21.371094 C 21.613281 21.800781 22.523438 22.351562 23.121094 23.257812 C 23.730469 24.179688 24.003906 25.417969 23.777344 26.503906 C 23.382812 28.40625 21.105469 30.558594 17.839844 30.796875 C 16.324219 30.90625 14.957031 30.621094 10.980469 29.964844 C 8.191406 29.53125 6.207031 29.363281 3.835938 30.332031 C 3.726562 30.378906 3.601562 30.414062 3.503906 30.480469 Z M 3.472656 30.492188 " fill-opacity="1" fill-rule="nonzero"/></g><path fill="#ff5e14" d="M 14.179688 24.226562 C 14.085938 24.507812 12.636719 26.25 11.386719 27.085938 C 11.511719 26.582031 11.613281 26.019531 11.324219 25.550781 C 11.089844 25.175781 10.667969 24.984375 10.273438 24.824219 C 10.816406 24.617188 11.496094 24.621094 12.632812 23.808594 C 12.578125 24.113281 12.515625 24.425781 12.375 24.703125 C 12.246094 24.953125 12.101562 25.113281 11.519531 25.039062 C 11.726562 25.226562 11.980469 25.386719 11.996094 25.6875 C 12 25.800781 11.972656 25.921875 11.945312 26.03125 C 12.785156 24.75 12.875 23.902344 13.105469 22.570312 C 12.90625 22.867188 12.699219 23.171875 12.4375 23.414062 C 11.71875 24.074219 10.710938 24.3125 9.808594 24.617188 L 8.863281 24.972656 C 10.34375 23.71875 11.074219 23.125 11.820312 21.796875 C 12.152344 21.207031 12.371094 20.710938 12.398438 19.917969 C 12.449219 18.519531 11.652344 17.316406 11.394531 16.558594 C 10.699219 14.507812 11.050781 11.992188 12.683594 10.476562 C 13.648438 9.582031 15.03125 9.222656 16.316406 9.128906 C 16.601562 9.109375 17.0625 9.078125 17.351562 9.113281 L 16.078125 9.316406 C 15.195312 9.492188 14.300781 9.824219 13.589844 10.386719 C 12.265625 11.425781 11.546875 13.265625 11.890625 15.023438 C 12.113281 16.144531 12.769531 17.222656 12.992188 17.753906 C 13.550781 19.101562 13.417969 20.625 12.609375 21.839844 C 12.304688 22.296875 11.945312 22.726562 11.535156 23.089844 C 11.203125 23.382812 11.160156 23.335938 11.089844 23.421875 C 11.355469 23.347656 11.613281 23.25 11.871094 23.152344 C 12.882812 22.769531 13.011719 22.582031 13.363281 22.242188 C 13.394531 22.300781 13.382812 22.46875 13.382812 22.539062 C 13.429688 24.074219 12.914062 25.179688 12.898438 25.347656 L 12.882812 25.363281 L 12.898438 25.347656 C 12.996094 25.28125 13.074219 25.183594 13.167969 25.105469 C 13.355469 24.945312 13.566406 24.8125 13.75 24.648438 C 13.898438 24.515625 14.027344 24.351562 14.179688 24.226562 Z M 14.179688 24.226562 " fill-opacity="1" fill-rule="nonzero"/><path fill="#ff5e14" d="M 15.195312 9.851562 C 15.324219 9.800781 15.457031 9.746094 15.59375 9.722656 C 15.183594 9.925781 14.804688 10.128906 14.476562 10.457031 C 14.023438 10.914062 13.667969 11.519531 13.570312 12.164062 C 13.550781 12.304688 13.558594 12.449219 13.558594 12.585938 L 15.203125 11.359375 C 15.140625 11.355469 15.070312 11.386719 15.011719 11.398438 C 14.640625 11.480469 14.359375 11.65625 14.054688 11.875 C 14.320312 11.402344 14.601562 10.894531 14.96875 10.496094 C 15.527344 9.886719 15.9375 9.753906 16.304688 9.617188 C 16.945312 9.382812 17.726562 9.195312 18.410156 9.199219 C 18.332031 9.242188 18.226562 9.261719 18.140625 9.289062 C 17.285156 9.558594 16.210938 9.851562 15.40625 10.710938 C 15.238281 10.890625 15.101562 11.085938 14.964844 11.289062 C 15.867188 10.953125 17.910156 10.664062 19.15625 11.050781 C 19 11.070312 18.832031 11.058594 18.675781 11.0625 C 17.71875 11.078125 17.402344 11.082031 16.445312 11.332031 C 15.203125 11.652344 15.035156 11.863281 14.398438 12.433594 C 13.445312 13.289062 13.707031 13.039062 13.210938 13.546875 C 12.730469 12.097656 13.304688 10.558594 15.195312 9.851562 Z M 15.195312 9.851562 " fill-opacity="1" fill-rule="nonzero"/><path fill="#ff5e14" d="M 14.285156 12.964844 C 14.097656 13.480469 13.828125 14.113281 13.769531 15.371094 C 13.765625 15.425781 13.707031 16.703125 13.695312 16.753906 C 13.234375 16.367188 12.699219 16.070312 12.460938 15.484375 C 12.386719 15.300781 12.347656 15.105469 12.304688 14.910156 C 12.167969 14.144531 12.167969 14.144531 12.167969 14.082031 L 12.167969 14.066406 C 12.261719 14.246094 12.488281 15.050781 13.425781 15.898438 L 13.496094 14.996094 C 13.515625 14.84375 13.566406 14.671875 13.5625 14.519531 L 13.179688 15.148438 C 12.097656 14.308594 12.175781 13.292969 12.738281 12.027344 C 12.800781 11.886719 12.886719 11.664062 12.988281 11.546875 C 12.886719 11.921875 12.765625 12.308594 12.839844 13.1875 C 12.878906 13.632812 12.960938 14.101562 13.175781 14.496094 C 14.054688 13.199219 14.109375 13.097656 14.285156 12.964844 Z M 14.285156 12.964844 " fill-opacity="1" fill-rule="nonzero"/><path fill="#ff5e14" d="M 14.355469 16.441406 C 14.546875 17.226562 14.53125 17.964844 14.402344 18.757812 C 14.261719 18.664062 14.167969 18.554688 14.046875 18.433594 C 13.429688 17.820312 13.023438 17.132812 12.703125 16.332031 C 12.648438 16.203125 12.5625 16.050781 12.539062 15.910156 C 12.625 15.980469 12.703125 16.144531 12.773438 16.238281 C 13.308594 16.917969 13.019531 16.589844 14.082031 17.664062 L 13.988281 15.265625 C 14.015625 15.300781 13.988281 15.226562 14.355469 16.441406 Z M 14.355469 16.441406 " fill-opacity="1" fill-rule="nonzero"/><path fill="#ff5e14" d="M 10.375 19.757812 C 10.746094 19.527344 11.113281 19.253906 11.3125 18.855469 C 11.542969 18.410156 11.53125 17.941406 11.378906 17.472656 C 11.738281 18.011719 11.976562 18.636719 12.039062 19.28125 C 12.070312 19.628906 12.046875 19.972656 11.992188 20.316406 C 11.683594 19.6875 10.628906 19.816406 10.375 19.757812 Z M 10.375 19.757812 " fill-opacity="1" fill-rule="nonzero"/><path fill="#ff5e14" d="M 14.652344 20.761719 C 14.035156 19.730469 14.199219 20.132812 13.3125 17.890625 C 13.359375 17.921875 13.394531 17.992188 13.425781 18.039062 C 13.792969 18.546875 13.542969 18.222656 14.558594 19.507812 C 14.6875 19.023438 14.8125 18.480469 14.800781 17.976562 C 15.105469 19.125 14.957031 19.894531 14.652344 20.761719 Z M 14.652344 20.761719 " fill-opacity="1" fill-rule="nonzero"/><path fill="#ff5e14" d="M 14.363281 22.515625 C 14.316406 21.601562 14.230469 21.3125 13.957031 20.457031 C 13.769531 19.878906 13.824219 19.964844 13.589844 19.503906 C 14.078125 20.042969 14.476562 20.714844 14.628906 21.429688 C 14.898438 21.078125 15.082031 20.605469 15.160156 20.171875 C 15.175781 20.222656 15.242188 21.675781 14.363281 22.515625 Z M 14.363281 22.515625 " fill-opacity="1" fill-rule="nonzero"/><path fill="#ff5e14" d="M 13.6875 24.359375 L 13.378906 24.601562 C 13.542969 24.097656 13.707031 22.921875 13.558594 21.636719 C 13.179688 22.171875 12.734375 22.550781 12.117188 22.78125 C 12.207031 22.652344 12.09375 22.808594 12.921875 21.816406 C 13.28125 21.398438 13.675781 20.941406 13.691406 20.359375 C 13.804688 20.933594 14.234375 21.503906 14.050781 22.875 C 14.027344 23.058594 14 23.238281 13.949219 23.417969 C 14.289062 23.046875 14.644531 22.644531 14.90625 22.214844 C 14.988281 22.085938 15.046875 21.949219 15.113281 21.808594 C 15.082031 21.964844 15.03125 22.109375 14.980469 22.261719 C 14.722656 23.074219 14.3125 23.769531 13.6875 24.359375 Z M 13.6875 24.359375 " fill-opacity="1" fill-rule="nonzero"/><g transform="matrix(1, 0, 0, 1, 28, 2)"><g clip-path="url(#b32f8744f2)"><g fill="#000000" fill-opacity="1"><g transform="translate(0.651824, 16.46357)"><g><path d="M 0.765625 0 L 0.765625 -1.9375 L 2.3125 -1.9375 L 2.3125 -9.78125 L 0.765625 -9.78125 L 0.765625 -11.71875 L 6.796875 -11.71875 C 7.515625 -11.71875 8.140625 -11.597656 8.671875 -11.359375 C 9.203125 -11.117188 9.613281 -10.78125 9.90625 -10.34375 C 10.195312 -9.90625 10.34375 -9.378906 10.34375 -8.765625 L 10.34375 -8.59375 C 10.34375 -8.050781 10.242188 -7.609375 10.046875 -7.265625 C 9.847656 -6.929688 9.609375 -6.671875 9.328125 -6.484375 C 9.054688 -6.304688 8.800781 -6.175781 8.5625 -6.09375 L 8.5625 -5.796875 C 8.800781 -5.722656 9.066406 -5.59375 9.359375 -5.40625 C 9.648438 -5.226562 9.898438 -4.96875 10.109375 -4.625 C 10.316406 -4.28125 10.421875 -3.828125 10.421875 -3.265625 L 10.421875 -3.09375 C 10.421875 -2.445312 10.269531 -1.890625 9.96875 -1.421875 C 9.664062 -0.960938 9.25 -0.609375 8.71875 -0.359375 C 8.1875 -0.117188 7.570312 0 6.875 0 Z M 4.515625 -2.015625 L 6.59375 -2.015625 C 7.070312 -2.015625 7.457031 -2.128906 7.75 -2.359375 C 8.050781 -2.597656 8.203125 -2.929688 8.203125 -3.359375 L 8.203125 -3.53125 C 8.203125 -3.96875 8.054688 -4.300781 7.765625 -4.53125 C 7.484375 -4.769531 7.09375 -4.890625 6.59375 -4.890625 L 4.515625 -4.890625 Z M 4.515625 -6.90625 L 6.5625 -6.90625 C 7.019531 -6.90625 7.394531 -7.019531 7.6875 -7.25 C 7.988281 -7.488281 8.140625 -7.8125 8.140625 -8.21875 L 8.140625 -8.390625 C 8.140625 -8.816406 7.992188 -9.144531 7.703125 -9.375 C 7.410156 -9.601562 7.03125 -9.71875 6.5625 -9.71875 L 4.515625 -9.71875 Z M 4.515625 -6.90625 "/></g></g></g><g fill="#000000" fill-opacity="1"><g transform="translate(11.767414, 16.46357)"><g><path d="M 1.171875 0 L 1.171875 -11.71875 L 3.28125 -11.71875 L 3.28125 0 Z M 1.171875 0 "/></g></g></g><g fill="#000000" fill-opacity="1"><g transform="translate(16.220346, 16.46357)"><g><path d="M 4.34375 0.140625 C 3.6875 0.140625 3.113281 -0.00390625 2.625 -0.296875 C 2.144531 -0.597656 1.769531 -1.007812 1.5 -1.53125 C 1.238281 -2.0625 1.109375 -2.664062 1.109375 -3.34375 L 1.109375 -8.3125 L 3.21875 -8.3125 L 3.21875 -3.515625 C 3.21875 -2.890625 3.367188 -2.421875 3.671875 -2.109375 C 3.984375 -1.796875 4.421875 -1.640625 4.984375 -1.640625 C 5.640625 -1.640625 6.144531 -1.851562 6.5 -2.28125 C 6.851562 -2.71875 7.03125 -3.320312 7.03125 -4.09375 L 7.03125 -8.3125 L 9.140625 -8.3125 L 9.140625 0 L 7.0625 0 L 7.0625 -1.09375 L 6.765625 -1.09375 C 6.628906 -0.8125 6.375 -0.535156 6 -0.265625 C 5.632812 0.00390625 5.082031 0.140625 4.34375 0.140625 Z M 4.34375 0.140625 "/></g></g></g><g fill="#000000" fill-opacity="1"><g transform="translate(26.532402, 16.46357)"><g><path d="M 4.953125 0.234375 C 4.128906 0.234375 3.398438 0.0546875 2.765625 -0.296875 C 2.140625 -0.648438 1.648438 -1.144531 1.296875 -1.78125 C 0.941406 -2.425781 0.765625 -3.179688 0.765625 -4.046875 L 0.765625 -4.25 C 0.765625 -5.125 0.9375 -5.878906 1.28125 -6.515625 C 1.632812 -7.160156 2.125 -7.660156 2.75 -8.015625 C 3.375 -8.367188 4.097656 -8.546875 4.921875 -8.546875 C 5.734375 -8.546875 6.441406 -8.363281 7.046875 -8 C 7.648438 -7.632812 8.117188 -7.128906 8.453125 -6.484375 C 8.796875 -5.847656 8.96875 -5.101562 8.96875 -4.25 L 8.96875 -3.53125 L 2.921875 -3.53125 C 2.941406 -2.96875 3.148438 -2.503906 3.546875 -2.140625 C 3.953125 -1.785156 4.445312 -1.609375 5.03125 -1.609375 C 5.613281 -1.609375 6.046875 -1.734375 6.328125 -1.984375 C 6.609375 -2.242188 6.820312 -2.53125 6.96875 -2.84375 L 8.6875 -1.9375 C 8.53125 -1.644531 8.304688 -1.328125 8.015625 -0.984375 C 7.722656 -0.648438 7.328125 -0.363281 6.828125 -0.125 C 6.335938 0.113281 5.710938 0.234375 4.953125 0.234375 Z M 2.9375 -5.109375 L 6.8125 -5.109375 C 6.769531 -5.585938 6.578125 -5.972656 6.234375 -6.265625 C 5.898438 -6.554688 5.457031 -6.703125 4.90625 -6.703125 C 4.332031 -6.703125 3.878906 -6.554688 3.546875 -6.265625 C 3.210938 -5.972656 3.007812 -5.585938 2.9375 -5.109375 Z M 2.9375 -5.109375 "/></g></g></g><g fill="#000000" fill-opacity="1"><g transform="translate(36.191585, 16.46357)"><g/></g></g><g fill="#000000" fill-opacity="1"><g transform="translate(40.443628, 16.46357)"><g><path d="M 5.171875 0.234375 C 4.265625 0.234375 3.460938 0.0703125 2.765625 -0.25 C 2.078125 -0.570312 1.535156 -1.035156 1.140625 -1.640625 C 0.753906 -2.242188 0.5625 -2.96875 0.5625 -3.8125 L 0.5625 -4.28125 L 2.75 -4.28125 L 2.75 -3.8125 C 2.75 -3.113281 2.960938 -2.585938 3.390625 -2.234375 C 3.828125 -1.878906 4.421875 -1.703125 5.171875 -1.703125 C 5.929688 -1.703125 6.5 -1.851562 6.875 -2.15625 C 7.25 -2.457031 7.4375 -2.84375 7.4375 -3.3125 C 7.4375 -3.632812 7.34375 -3.894531 7.15625 -4.09375 C 6.976562 -4.300781 6.710938 -4.46875 6.359375 -4.59375 C 6.003906 -4.726562 5.578125 -4.847656 5.078125 -4.953125 L 4.6875 -5.046875 C 3.882812 -5.222656 3.195312 -5.445312 2.625 -5.71875 C 2.050781 -5.988281 1.609375 -6.347656 1.296875 -6.796875 C 0.992188 -7.242188 0.84375 -7.828125 0.84375 -8.546875 C 0.84375 -9.253906 1.007812 -9.863281 1.34375 -10.375 C 1.6875 -10.882812 2.164062 -11.273438 2.78125 -11.546875 C 3.40625 -11.816406 4.132812 -11.953125 4.96875 -11.953125 C 5.8125 -11.953125 6.554688 -11.8125 7.203125 -11.53125 C 7.859375 -11.25 8.375 -10.820312 8.75 -10.25 C 9.125 -9.6875 9.3125 -8.984375 9.3125 -8.140625 L 9.3125 -7.640625 L 7.140625 -7.640625 L 7.140625 -8.140625 C 7.140625 -8.585938 7.050781 -8.945312 6.875 -9.21875 C 6.695312 -9.488281 6.445312 -9.6875 6.125 -9.8125 C 5.800781 -9.945312 5.414062 -10.015625 4.96875 -10.015625 C 4.300781 -10.015625 3.804688 -9.890625 3.484375 -9.640625 C 3.171875 -9.390625 3.015625 -9.046875 3.015625 -8.609375 C 3.015625 -8.316406 3.085938 -8.070312 3.234375 -7.875 C 3.390625 -7.675781 3.617188 -7.507812 3.921875 -7.375 C 4.222656 -7.238281 4.609375 -7.117188 5.078125 -7.015625 L 5.453125 -6.9375 C 6.296875 -6.757812 7.023438 -6.53125 7.640625 -6.25 C 8.265625 -5.96875 8.75 -5.597656 9.09375 -5.140625 C 9.4375 -4.679688 9.609375 -4.097656 9.609375 -3.390625 C 9.609375 -2.671875 9.425781 -2.039062 9.0625 -1.5 C 8.707031 -0.957031 8.195312 -0.53125 7.53125 -0.21875 C 6.863281 0.0820312 6.078125 0.234375 5.171875 0.234375 Z M 5.171875 0.234375 "/></g></g></g><g fill="#000000" fill-opacity="1"><g transform="translate(50.58828, 16.46357)"><g><path d="M 4.359375 0 C 3.804688 0 3.359375 -0.164062 3.015625 -0.5 C 2.679688 -0.84375 2.515625 -1.300781 2.515625 -1.875 L 2.515625 -6.5625 L 0.4375 -6.5625 L 0.4375 -8.3125 L 2.515625 -8.3125 L 2.515625 -10.890625 L 4.625 -10.890625 L 4.625 -8.3125 L 6.90625 -8.3125 L 6.90625 -6.5625 L 4.625 -6.5625 L 4.625 -2.25 C 4.625 -1.90625 4.78125 -1.734375 5.09375 -1.734375 L 6.703125 -1.734375 L 6.703125 0 Z M 4.359375 0 "/></g></g></g><g fill="#000000" fill-opacity="1"><g transform="translate(57.920495, 16.46357)"><g><path d="M 5.125 0.234375 C 4.300781 0.234375 3.554688 0.0664062 2.890625 -0.265625 C 2.234375 -0.597656 1.710938 -1.082031 1.328125 -1.71875 C 0.953125 -2.363281 0.765625 -3.128906 0.765625 -4.015625 L 0.765625 -4.28125 C 0.765625 -5.175781 0.953125 -5.941406 1.328125 -6.578125 C 1.710938 -7.210938 2.234375 -7.695312 2.890625 -8.03125 C 3.554688 -8.375 4.300781 -8.546875 5.125 -8.546875 C 5.945312 -8.546875 6.6875 -8.375 7.34375 -8.03125 C 8.007812 -7.695312 8.53125 -7.210938 8.90625 -6.578125 C 9.289062 -5.941406 9.484375 -5.175781 9.484375 -4.28125 L 9.484375 -4.015625 C 9.484375 -3.128906 9.289062 -2.363281 8.90625 -1.71875 C 8.53125 -1.082031 8.007812 -0.597656 7.34375 -0.265625 C 6.6875 0.0664062 5.945312 0.234375 5.125 0.234375 Z M 5.125 -1.640625 C 5.769531 -1.640625 6.304688 -1.847656 6.734375 -2.265625 C 7.160156 -2.679688 7.375 -3.28125 7.375 -4.0625 L 7.375 -4.234375 C 7.375 -5.015625 7.160156 -5.613281 6.734375 -6.03125 C 6.316406 -6.457031 5.78125 -6.671875 5.125 -6.671875 C 4.476562 -6.671875 3.941406 -6.457031 3.515625 -6.03125 C 3.085938 -5.613281 2.875 -5.015625 2.875 -4.234375 L 2.875 -4.0625 C 2.875 -3.28125 3.085938 -2.679688 3.515625 -2.265625 C 3.941406 -1.847656 4.476562 -1.640625 5.125 -1.640625 Z M 5.125 -1.640625 "/></g></g></g><g fill="#000000" fill-opacity="1"><g transform="translate(68.165592, 16.46357)"><g><path d="M 1.171875 0 L 1.171875 -8.3125 L 3.25 -8.3125 L 3.25 -7.21875 L 3.546875 -7.21875 C 3.679688 -7.507812 3.929688 -7.785156 4.296875 -8.046875 C 4.671875 -8.304688 5.234375 -8.4375 5.984375 -8.4375 C 6.628906 -8.4375 7.191406 -8.285156 7.671875 -7.984375 C 8.160156 -7.691406 8.539062 -7.285156 8.8125 -6.765625 C 9.082031 -6.253906 9.21875 -5.648438 9.21875 -4.953125 L 9.21875 0 L 7.109375 0 L 7.109375 -4.796875 C 7.109375 -5.421875 6.953125 -5.890625 6.640625 -6.203125 C 6.335938 -6.515625 5.898438 -6.671875 5.328125 -6.671875 C 4.679688 -6.671875 4.175781 -6.453125 3.8125 -6.015625 C 3.457031 -5.585938 3.28125 -4.988281 3.28125 -4.21875 L 3.28125 0 Z M 1.171875 0 "/></g></g></g><g fill="#000000" fill-opacity="1"><g transform="translate(78.477647, 16.46357)"><g><path d="M 4.953125 0.234375 C 4.128906 0.234375 3.398438 0.0546875 2.765625 -0.296875 C 2.140625 -0.648438 1.648438 -1.144531 1.296875 -1.78125 C 0.941406 -2.425781 0.765625 -3.179688 0.765625 -4.046875 L 0.765625 -4.25 C 0.765625 -5.125 0.9375 -5.878906 1.28125 -6.515625 C 1.632812 -7.160156 2.125 -7.660156 2.75 -8.015625 C 3.375 -8.367188 4.097656 -8.546875 4.921875 -8.546875 C 5.734375 -8.546875 6.441406 -8.363281 7.046875 -8 C 7.648438 -7.632812 8.117188 -7.128906 8.453125 -6.484375 C 8.796875 -5.847656 8.96875 -5.101562 8.96875 -4.25 L 8.96875 -3.53125 L 2.921875 -3.53125 C 2.941406 -2.96875 3.148438 -2.503906 3.546875 -2.140625 C 3.953125 -1.785156 4.445312 -1.609375 5.03125 -1.609375 C 5.613281 -1.609375 6.046875 -1.734375 6.328125 -1.984375 C 6.609375 -2.242188 6.820312 -2.53125 6.96875 -2.84375 L 8.6875 -1.9375 C 8.53125 -1.644531 8.304688 -1.328125 8.015625 -0.984375 C 7.722656 -0.648438 7.328125 -0.363281 6.828125 -0.125 C 6.335938 0.113281 5.710938 0.234375 4.953125 0.234375 Z M 2.9375 -5.109375 L 6.8125 -5.109375 C 6.769531 -5.585938 6.578125 -5.972656 6.234375 -6.265625 C 5.898438 -6.554688 5.457031 -6.703125 4.90625 -6.703125 C 4.332031 -6.703125 3.878906 -6.554688 3.546875 -6.265625 C 3.210938 -5.972656 3.007812 -5.585938 2.9375 -5.109375 Z M 2.9375 -5.109375 "/></g></g></g></g></g><g fill="#000000" fill-opacity="1"><g transform="translate(31.482853, 28.05379)"><g><path d="M 4.390625 -2.09375 C 4.304688 -2.019531 4.222656 -1.945312 4.140625 -1.875 C 4.054688 -1.8125 3.976562 -1.757812 3.90625 -1.71875 C 3.832031 -1.675781 3.769531 -1.660156 3.71875 -1.671875 C 3.695312 -1.679688 3.675781 -1.703125 3.65625 -1.734375 C 3.632812 -1.773438 3.628906 -1.816406 3.640625 -1.859375 C 3.660156 -1.921875 3.703125 -1.972656 3.765625 -2.015625 C 3.835938 -2.054688 3.914062 -2.101562 4 -2.15625 C 4.082031 -2.207031 4.191406 -2.269531 4.328125 -2.34375 C 4.554688 -2.550781 4.757812 -2.765625 4.9375 -2.984375 C 5.113281 -3.203125 5.25 -3.421875 5.34375 -3.640625 C 5.4375 -3.859375 5.484375 -4.066406 5.484375 -4.265625 C 5.484375 -4.460938 5.421875 -4.613281 5.296875 -4.71875 C 5.171875 -4.832031 4.992188 -4.890625 4.765625 -4.890625 C 4.453125 -4.890625 4.140625 -4.828125 3.828125 -4.703125 C 3.515625 -4.585938 3.207031 -4.421875 2.90625 -4.203125 C 2.613281 -3.984375 2.332031 -3.734375 2.0625 -3.453125 C 1.800781 -3.171875 1.5625 -2.875 1.34375 -2.5625 C 1.125 -2.25 0.929688 -1.9375 0.765625 -1.625 C 0.597656 -1.3125 0.46875 -1.007812 0.375 -0.71875 C 0.289062 -0.425781 0.25 -0.164062 0.25 0.0625 C 0.25 0.394531 0.320312 0.640625 0.46875 0.796875 C 0.625 0.953125 0.851562 1.03125 1.15625 1.03125 C 1.40625 1.03125 1.664062 0.984375 1.9375 0.890625 C 2.207031 0.796875 2.476562 0.671875 2.75 0.515625 C 3.019531 0.367188 3.285156 0.203125 3.546875 0.015625 C 3.816406 -0.171875 4.070312 -0.363281 4.3125 -0.5625 C 4.550781 -0.757812 4.765625 -0.945312 4.953125 -1.125 C 5.140625 -1.300781 5.296875 -1.453125 5.421875 -1.578125 C 5.554688 -1.710938 5.648438 -1.800781 5.703125 -1.84375 C 5.722656 -1.875 5.753906 -1.890625 5.796875 -1.890625 C 5.828125 -1.890625 5.851562 -1.875 5.875 -1.84375 C 5.90625 -1.820312 5.921875 -1.796875 5.921875 -1.765625 C 5.921875 -1.734375 5.910156 -1.703125 5.890625 -1.671875 C 5.835938 -1.617188 5.742188 -1.523438 5.609375 -1.390625 C 5.472656 -1.265625 5.304688 -1.109375 5.109375 -0.921875 C 4.921875 -0.742188 4.703125 -0.554688 4.453125 -0.359375 C 4.210938 -0.160156 3.953125 0.03125 3.671875 0.21875 C 3.398438 0.414062 3.117188 0.59375 2.828125 0.75 C 2.546875 0.914062 2.257812 1.046875 1.96875 1.140625 C 1.6875 1.234375 1.414062 1.28125 1.15625 1.28125 C 0.78125 1.28125 0.492188 1.175781 0.296875 0.96875 C 0.0976562 0.757812 0 0.457031 0 0.0625 C 0 -0.175781 0.046875 -0.445312 0.140625 -0.75 C 0.234375 -1.0625 0.363281 -1.378906 0.53125 -1.703125 C 0.707031 -2.035156 0.910156 -2.363281 1.140625 -2.6875 C 1.378906 -3.019531 1.640625 -3.332031 1.921875 -3.625 C 2.203125 -3.914062 2.5 -4.175781 2.8125 -4.40625 C 3.125 -4.632812 3.441406 -4.8125 3.765625 -4.9375 C 4.097656 -5.070312 4.429688 -5.140625 4.765625 -5.140625 C 5.054688 -5.140625 5.289062 -5.0625 5.46875 -4.90625 C 5.644531 -4.75 5.734375 -4.535156 5.734375 -4.265625 C 5.734375 -4.035156 5.675781 -3.796875 5.5625 -3.546875 C 5.457031 -3.296875 5.304688 -3.046875 5.109375 -2.796875 C 4.910156 -2.546875 4.671875 -2.3125 4.390625 -2.09375 Z M 4.390625 -2.09375 "/></g></g></g><g fill="#000000" fill-opacity="1"><g transform="translate(38.555641, 28.05379)"><g><path d="M 0.03125 -0.015625 C -0.113281 -0.015625 -0.226562 -0.0546875 -0.3125 -0.140625 C -0.40625 -0.234375 -0.453125 -0.359375 -0.453125 -0.515625 C -0.453125 -0.660156 -0.425781 -0.804688 -0.375 -0.953125 C -0.332031 -1.109375 -0.265625 -1.257812 -0.171875 -1.40625 C -0.078125 -1.550781 0.0234375 -1.675781 0.140625 -1.78125 C 0.191406 -1.84375 0.234375 -1.859375 0.265625 -1.828125 L 0.296875 -1.78125 C 0.347656 -1.96875 0.4375 -2.113281 0.5625 -2.21875 C 0.695312 -2.332031 0.847656 -2.390625 1.015625 -2.390625 C 1.171875 -2.390625 1.289062 -2.335938 1.375 -2.234375 C 1.46875 -2.140625 1.515625 -2.007812 1.515625 -1.84375 C 1.515625 -1.664062 1.472656 -1.472656 1.390625 -1.265625 C 1.304688 -1.066406 1.195312 -0.878906 1.0625 -0.703125 C 1.113281 -0.691406 1.175781 -0.6875 1.25 -0.6875 C 1.4375 -0.6875 1.617188 -0.71875 1.796875 -0.78125 C 1.972656 -0.84375 2.132812 -0.921875 2.28125 -1.015625 C 2.4375 -1.109375 2.570312 -1.203125 2.6875 -1.296875 C 2.8125 -1.398438 2.910156 -1.492188 2.984375 -1.578125 C 3.066406 -1.671875 3.128906 -1.742188 3.171875 -1.796875 C 3.191406 -1.828125 3.222656 -1.84375 3.265625 -1.84375 C 3.296875 -1.84375 3.320312 -1.828125 3.34375 -1.796875 C 3.375 -1.773438 3.390625 -1.75 3.390625 -1.71875 C 3.390625 -1.6875 3.378906 -1.660156 3.359375 -1.640625 C 3.328125 -1.585938 3.265625 -1.515625 3.171875 -1.421875 C 3.085938 -1.328125 2.976562 -1.222656 2.84375 -1.109375 C 2.71875 -1.003906 2.570312 -0.898438 2.40625 -0.796875 C 2.238281 -0.691406 2.054688 -0.601562 1.859375 -0.53125 C 1.660156 -0.46875 1.457031 -0.4375 1.25 -0.4375 C 1.113281 -0.4375 0.988281 -0.457031 0.875 -0.5 C 0.75 -0.351562 0.609375 -0.234375 0.453125 -0.140625 C 0.304688 -0.0546875 0.164062 -0.015625 0.03125 -0.015625 Z M 0.8125 -0.796875 C 0.945312 -0.960938 1.054688 -1.140625 1.140625 -1.328125 C 1.222656 -1.515625 1.265625 -1.6875 1.265625 -1.84375 C 1.265625 -2.039062 1.179688 -2.140625 1.015625 -2.140625 C 0.867188 -2.140625 0.742188 -2.078125 0.640625 -1.953125 C 0.546875 -1.828125 0.5 -1.664062 0.5 -1.46875 C 0.5 -1.144531 0.601562 -0.921875 0.8125 -0.796875 Z M 0.03125 -0.25 C 0.125 -0.25 0.222656 -0.28125 0.328125 -0.34375 C 0.441406 -0.414062 0.550781 -0.503906 0.65625 -0.609375 C 0.519531 -0.691406 0.414062 -0.804688 0.34375 -0.953125 C 0.28125 -1.097656 0.25 -1.269531 0.25 -1.46875 C 0.25 -1.488281 0.25 -1.503906 0.25 -1.515625 C 0.25 -1.523438 0.25 -1.535156 0.25 -1.546875 C 0.113281 -1.410156 0.00390625 -1.25 -0.078125 -1.0625 C -0.160156 -0.875 -0.203125 -0.691406 -0.203125 -0.515625 C -0.203125 -0.335938 -0.121094 -0.25 0.03125 -0.25 Z M 0.03125 -0.25 "/></g></g></g><g fill="#000000" fill-opacity="1"><g transform="translate(43.192157, 28.05379)"><g><path d="M 0.28125 -2.03125 C 0.351562 -2.132812 0.414062 -2.222656 0.46875 -2.296875 C 0.519531 -2.367188 0.570312 -2.4375 0.625 -2.5 C 0.6875 -2.570312 0.753906 -2.609375 0.828125 -2.609375 C 0.859375 -2.609375 0.882812 -2.597656 0.90625 -2.578125 C 0.9375 -2.566406 0.953125 -2.539062 0.953125 -2.5 C 0.953125 -2.445312 0.925781 -2.390625 0.875 -2.328125 C 0.832031 -2.265625 0.773438 -2.195312 0.703125 -2.125 C 0.640625 -2.0625 0.578125 -1.992188 0.515625 -1.921875 C 0.335938 -1.679688 0.175781 -1.453125 0.03125 -1.234375 C -0.101562 -1.023438 -0.21875 -0.835938 -0.3125 -0.671875 C -0.351562 -0.597656 -0.363281 -0.546875 -0.34375 -0.515625 C -0.332031 -0.492188 -0.285156 -0.519531 -0.203125 -0.59375 C -0.148438 -0.632812 -0.0976562 -0.675781 -0.046875 -0.71875 C -0.00390625 -0.769531 0.0390625 -0.820312 0.09375 -0.875 C 0.457031 -1.238281 0.765625 -1.53125 1.015625 -1.75 C 1.273438 -1.976562 1.492188 -2.140625 1.671875 -2.234375 C 1.859375 -2.335938 2.015625 -2.390625 2.140625 -2.390625 C 2.234375 -2.390625 2.304688 -2.363281 2.359375 -2.3125 C 2.410156 -2.257812 2.4375 -2.179688 2.4375 -2.078125 C 2.4375 -1.984375 2.410156 -1.863281 2.359375 -1.71875 C 2.316406 -1.570312 2.269531 -1.425781 2.21875 -1.28125 C 2.164062 -1.132812 2.113281 -0.988281 2.0625 -0.84375 C 2.019531 -0.707031 2 -0.585938 2 -0.484375 C 2 -0.429688 2.007812 -0.394531 2.03125 -0.375 C 2.050781 -0.351562 2.082031 -0.34375 2.125 -0.34375 C 2.257812 -0.34375 2.410156 -0.382812 2.578125 -0.46875 C 2.753906 -0.550781 2.9375 -0.660156 3.125 -0.796875 C 3.320312 -0.941406 3.519531 -1.097656 3.71875 -1.265625 C 3.925781 -1.441406 4.132812 -1.625 4.34375 -1.8125 C 4.363281 -1.832031 4.390625 -1.84375 4.421875 -1.84375 C 4.453125 -1.84375 4.476562 -1.828125 4.5 -1.796875 C 4.53125 -1.773438 4.546875 -1.75 4.546875 -1.71875 C 4.546875 -1.675781 4.53125 -1.644531 4.5 -1.625 C 4.300781 -1.445312 4.09375 -1.265625 3.875 -1.078125 C 3.664062 -0.898438 3.457031 -0.738281 3.25 -0.59375 C 3.039062 -0.445312 2.835938 -0.328125 2.640625 -0.234375 C 2.453125 -0.140625 2.28125 -0.09375 2.125 -0.09375 C 2.007812 -0.09375 1.921875 -0.128906 1.859375 -0.203125 C 1.796875 -0.273438 1.765625 -0.367188 1.765625 -0.484375 C 1.765625 -0.609375 1.785156 -0.75 1.828125 -0.90625 C 1.878906 -1.0625 1.929688 -1.21875 1.984375 -1.375 C 2.035156 -1.519531 2.082031 -1.648438 2.125 -1.765625 C 2.164062 -1.890625 2.1875 -1.992188 2.1875 -2.078125 C 2.1875 -2.109375 2.175781 -2.128906 2.15625 -2.140625 C 2.132812 -2.148438 2.113281 -2.15625 2.09375 -2.15625 C 2.007812 -2.15625 1.890625 -2.101562 1.734375 -2 C 1.578125 -1.90625 1.378906 -1.75 1.140625 -1.53125 C 0.898438 -1.320312 0.609375 -1.046875 0.265625 -0.703125 C 0.046875 -0.484375 -0.128906 -0.3125 -0.265625 -0.1875 C -0.398438 -0.0703125 -0.503906 -0.015625 -0.578125 -0.015625 C -0.628906 -0.015625 -0.671875 -0.03125 -0.703125 -0.0625 C -0.742188 -0.101562 -0.765625 -0.148438 -0.765625 -0.203125 C -0.765625 -0.285156 -0.71875 -0.414062 -0.625 -0.59375 C -0.539062 -0.78125 -0.421875 -0.992188 -0.265625 -1.234375 C -0.109375 -1.484375 0.0703125 -1.75 0.28125 -2.03125 Z M 0.28125 -2.03125 "/></g></g></g><g fill="#000000" fill-opacity="1"><g transform="translate(48.982445, 28.05379)"><g><path d="M -1.15625 1.53125 C -1.269531 1.53125 -1.363281 1.5 -1.4375 1.4375 C -1.507812 1.375 -1.546875 1.285156 -1.546875 1.171875 C -1.546875 1.054688 -1.503906 0.941406 -1.421875 0.828125 C -1.347656 0.722656 -1.222656 0.601562 -1.046875 0.46875 C -0.867188 0.332031 -0.632812 0.1875 -0.34375 0.03125 L -0.328125 -0.03125 C -0.242188 -0.414062 -0.164062 -0.757812 -0.09375 -1.0625 C -0.0195312 -1.375 0.0507812 -1.640625 0.125 -1.859375 C 0.207031 -2.078125 0.304688 -2.238281 0.421875 -2.34375 C 0.535156 -2.457031 0.671875 -2.515625 0.828125 -2.515625 C 1.054688 -2.515625 1.265625 -2.410156 1.453125 -2.203125 C 1.472656 -2.179688 1.484375 -2.15625 1.484375 -2.125 C 1.484375 -2.082031 1.46875 -2.050781 1.4375 -2.03125 C 1.414062 -2.007812 1.390625 -2 1.359375 -2 C 1.316406 -2 1.285156 -2.007812 1.265625 -2.03125 C 1.128906 -2.195312 0.984375 -2.28125 0.828125 -2.28125 C 0.679688 -2.28125 0.5625 -2.203125 0.46875 -2.046875 C 0.382812 -1.890625 0.300781 -1.648438 0.21875 -1.328125 C 0.144531 -1.015625 0.0546875 -0.617188 -0.046875 -0.140625 C 0.117188 -0.222656 0.304688 -0.316406 0.515625 -0.421875 C 0.722656 -0.535156 0.953125 -0.648438 1.203125 -0.765625 C 1.578125 -0.941406 1.9375 -1.117188 2.28125 -1.296875 C 2.632812 -1.472656 2.9375 -1.648438 3.1875 -1.828125 C 3.207031 -1.828125 3.222656 -1.828125 3.234375 -1.828125 C 3.242188 -1.835938 3.253906 -1.84375 3.265625 -1.84375 C 3.296875 -1.84375 3.320312 -1.828125 3.34375 -1.796875 C 3.375 -1.773438 3.390625 -1.75 3.390625 -1.71875 C 3.390625 -1.675781 3.367188 -1.640625 3.328125 -1.609375 C 3.066406 -1.429688 2.757812 -1.253906 2.40625 -1.078125 C 2.050781 -0.898438 1.6875 -0.722656 1.3125 -0.546875 C 1.019531 -0.398438 0.753906 -0.265625 0.515625 -0.140625 C 0.273438 -0.0234375 0.0585938 0.0820312 -0.125 0.1875 C -0.226562 0.644531 -0.363281 0.984375 -0.53125 1.203125 C -0.707031 1.421875 -0.914062 1.53125 -1.15625 1.53125 Z M -1.140625 1.3125 C -0.992188 1.3125 -0.859375 1.234375 -0.734375 1.078125 C -0.617188 0.921875 -0.515625 0.679688 -0.421875 0.359375 C -0.734375 0.546875 -0.953125 0.695312 -1.078125 0.8125 C -1.210938 0.9375 -1.28125 1.050781 -1.28125 1.15625 C -1.28125 1.195312 -1.269531 1.234375 -1.25 1.265625 C -1.226562 1.296875 -1.191406 1.3125 -1.140625 1.3125 Z M -1.140625 1.3125 "/></g></g></g><g fill="#000000" fill-opacity="1"><g transform="translate(53.614197, 28.05379)"><g><path d="M -1.34375 1.359375 C -1.425781 1.359375 -1.472656 1.320312 -1.484375 1.25 C -1.492188 1.175781 -1.476562 1.09375 -1.4375 1 C -1.34375 0.78125 -1.222656 0.535156 -1.078125 0.265625 C -0.941406 0.00390625 -0.789062 -0.273438 -0.625 -0.578125 C -0.457031 -0.878906 -0.273438 -1.179688 -0.078125 -1.484375 C 0.105469 -1.796875 0.296875 -2.097656 0.484375 -2.390625 C 0.679688 -2.691406 0.875 -2.976562 1.0625 -3.25 C 0.675781 -3.195312 0.304688 -3.140625 -0.046875 -3.078125 C -0.398438 -3.015625 -0.71875 -2.953125 -1 -2.890625 C -1.007812 -2.878906 -1.019531 -2.875 -1.03125 -2.875 C -1.0625 -2.875 -1.085938 -2.882812 -1.109375 -2.90625 C -1.140625 -2.9375 -1.15625 -2.96875 -1.15625 -3 C -1.15625 -3.070312 -1.117188 -3.113281 -1.046875 -3.125 C -0.742188 -3.195312 -0.394531 -3.265625 0 -3.328125 C 0.40625 -3.398438 0.820312 -3.460938 1.25 -3.515625 C 1.375 -3.660156 1.492188 -3.804688 1.609375 -3.953125 C 1.722656 -4.109375 1.832031 -4.242188 1.9375 -4.359375 C 2.039062 -4.484375 2.132812 -4.582031 2.21875 -4.65625 C 2.25 -4.675781 2.273438 -4.6875 2.296875 -4.6875 C 2.335938 -4.6875 2.367188 -4.671875 2.390625 -4.640625 C 2.410156 -4.617188 2.421875 -4.59375 2.421875 -4.5625 C 2.421875 -4.53125 2.410156 -4.5 2.390625 -4.46875 C 2.316406 -4.40625 2.234375 -4.320312 2.140625 -4.21875 C 2.054688 -4.113281 1.960938 -4.003906 1.859375 -3.890625 C 1.765625 -3.773438 1.671875 -3.664062 1.578125 -3.5625 C 1.984375 -3.601562 2.382812 -3.628906 2.78125 -3.640625 C 3.175781 -3.648438 3.539062 -3.640625 3.875 -3.609375 C 3.90625 -3.609375 3.929688 -3.597656 3.953125 -3.578125 C 3.972656 -3.554688 3.984375 -3.523438 3.984375 -3.484375 C 3.984375 -3.453125 3.972656 -3.421875 3.953125 -3.390625 C 3.929688 -3.367188 3.898438 -3.359375 3.859375 -3.359375 L 3.84375 -3.359375 C 3.488281 -3.398438 3.097656 -3.410156 2.671875 -3.390625 C 2.253906 -3.367188 1.828125 -3.332031 1.390625 -3.28125 C 1.210938 -3.03125 1.03125 -2.765625 0.84375 -2.484375 C 0.65625 -2.203125 0.46875 -1.914062 0.28125 -1.625 C 0.101562 -1.332031 -0.0664062 -1.039062 -0.234375 -0.75 C -0.410156 -0.457031 -0.570312 -0.175781 -0.71875 0.09375 C -0.863281 0.363281 -0.988281 0.613281 -1.09375 0.84375 C -1.019531 0.875 -1.003906 0.925781 -1.046875 1 C -1.085938 1.09375 -1.132812 1.175781 -1.1875 1.25 C -1.238281 1.320312 -1.289062 1.359375 -1.34375 1.359375 Z M -1.34375 1.359375 "/></g></g></g><g fill="#000000" fill-opacity="1"><g transform="translate(57.077879, 28.05379)"><g><path d="M -0.5 -0.265625 C -0.582031 -0.304688 -0.609375 -0.363281 -0.578125 -0.4375 C -0.535156 -0.5625 -0.476562 -0.695312 -0.40625 -0.84375 C -0.332031 -1 -0.25 -1.15625 -0.15625 -1.3125 C -0.0703125 -1.46875 0.0078125 -1.617188 0.09375 -1.765625 C 0.1875 -1.921875 0.269531 -2.054688 0.34375 -2.171875 C 0.425781 -2.296875 0.492188 -2.390625 0.546875 -2.453125 C 0.578125 -2.492188 0.613281 -2.515625 0.65625 -2.515625 C 0.6875 -2.515625 0.710938 -2.5 0.734375 -2.46875 C 0.753906 -2.445312 0.765625 -2.421875 0.765625 -2.390625 C 0.765625 -2.359375 0.757812 -2.332031 0.75 -2.3125 C 0.675781 -2.226562 0.585938 -2.101562 0.484375 -1.9375 C 0.378906 -1.769531 0.265625 -1.578125 0.140625 -1.359375 C 0.0859375 -1.265625 0.0664062 -1.207031 0.078125 -1.1875 C 0.0976562 -1.175781 0.148438 -1.210938 0.234375 -1.296875 C 0.441406 -1.503906 0.648438 -1.691406 0.859375 -1.859375 C 1.078125 -2.023438 1.273438 -2.15625 1.453125 -2.25 C 1.628906 -2.34375 1.765625 -2.390625 1.859375 -2.390625 C 1.984375 -2.390625 2.066406 -2.34375 2.109375 -2.25 C 2.148438 -2.164062 2.179688 -2.03125 2.203125 -1.84375 C 2.222656 -1.664062 2.25 -1.546875 2.28125 -1.484375 C 2.3125 -1.421875 2.367188 -1.390625 2.453125 -1.390625 C 2.585938 -1.390625 2.722656 -1.410156 2.859375 -1.453125 C 3.003906 -1.503906 3.128906 -1.5625 3.234375 -1.625 C 3.347656 -1.695312 3.4375 -1.753906 3.5 -1.796875 C 3.519531 -1.804688 3.546875 -1.8125 3.578125 -1.8125 C 3.609375 -1.8125 3.632812 -1.800781 3.65625 -1.78125 C 3.6875 -1.757812 3.703125 -1.726562 3.703125 -1.6875 C 3.703125 -1.644531 3.679688 -1.613281 3.640625 -1.59375 C 3.585938 -1.5625 3.519531 -1.519531 3.4375 -1.46875 C 3.351562 -1.414062 3.257812 -1.363281 3.15625 -1.3125 C 3.050781 -1.257812 2.9375 -1.21875 2.8125 -1.1875 C 2.695312 -1.15625 2.578125 -1.140625 2.453125 -1.140625 C 2.347656 -1.140625 2.257812 -1.160156 2.1875 -1.203125 C 2.125 -1.242188 2.078125 -1.300781 2.046875 -1.375 C 2.015625 -1.445312 1.992188 -1.519531 1.984375 -1.59375 C 1.972656 -1.675781 1.960938 -1.753906 1.953125 -1.828125 C 1.941406 -1.960938 1.929688 -2.046875 1.921875 -2.078125 C 1.910156 -2.117188 1.890625 -2.140625 1.859375 -2.140625 C 1.796875 -2.140625 1.695312 -2.101562 1.5625 -2.03125 C 1.4375 -1.957031 1.285156 -1.859375 1.109375 -1.734375 C 0.941406 -1.617188 0.769531 -1.484375 0.59375 -1.328125 C 0.414062 -1.171875 0.242188 -1.003906 0.078125 -0.828125 C -0.0742188 -0.660156 -0.210938 -0.488281 -0.328125 -0.3125 C -0.367188 -0.25 -0.425781 -0.234375 -0.5 -0.265625 Z M -0.5 -0.265625 "/></g></g></g><g fill="#000000" fill-opacity="1"><g transform="translate(62.02906, 28.05379)"><g><path d="M 1.859375 -0.078125 C 1.660156 -0.078125 1.507812 -0.128906 1.40625 -0.234375 C 1.3125 -0.335938 1.265625 -0.484375 1.265625 -0.671875 C 1.265625 -0.765625 1.273438 -0.863281 1.296875 -0.96875 C 1.054688 -0.71875 0.820312 -0.515625 0.59375 -0.359375 C 0.363281 -0.210938 0.160156 -0.140625 -0.015625 -0.140625 C -0.128906 -0.140625 -0.21875 -0.175781 -0.28125 -0.25 C -0.351562 -0.332031 -0.394531 -0.4375 -0.40625 -0.5625 C -0.414062 -0.75 -0.347656 -0.976562 -0.203125 -1.25 C -0.0546875 -1.53125 0.148438 -1.835938 0.421875 -2.171875 C 0.453125 -2.203125 0.488281 -2.21875 0.53125 -2.21875 C 0.5625 -2.21875 0.585938 -2.207031 0.609375 -2.1875 C 0.640625 -2.164062 0.65625 -2.132812 0.65625 -2.09375 C 0.65625 -2.070312 0.644531 -2.046875 0.625 -2.015625 C 0.375 -1.703125 0.179688 -1.421875 0.046875 -1.171875 C -0.0859375 -0.921875 -0.15625 -0.722656 -0.15625 -0.578125 C -0.15625 -0.453125 -0.109375 -0.390625 -0.015625 -0.390625 C 0.0859375 -0.390625 0.210938 -0.429688 0.359375 -0.515625 C 0.515625 -0.597656 0.675781 -0.710938 0.84375 -0.859375 C 1.007812 -1.015625 1.175781 -1.191406 1.34375 -1.390625 C 1.519531 -1.597656 1.691406 -1.820312 1.859375 -2.0625 C 1.867188 -2.0625 1.882812 -2.078125 1.90625 -2.109375 C 1.925781 -2.148438 1.953125 -2.1875 1.984375 -2.21875 C 2.015625 -2.257812 2.039062 -2.296875 2.0625 -2.328125 C 2.09375 -2.359375 2.128906 -2.375 2.171875 -2.375 C 2.203125 -2.375 2.226562 -2.363281 2.25 -2.34375 C 2.28125 -2.320312 2.296875 -2.289062 2.296875 -2.25 C 2.296875 -2.21875 2.285156 -2.191406 2.265625 -2.171875 C 2.179688 -2.066406 2.09375 -1.945312 2 -1.8125 C 1.914062 -1.675781 1.832031 -1.539062 1.75 -1.40625 C 1.675781 -1.28125 1.613281 -1.148438 1.5625 -1.015625 C 1.519531 -0.890625 1.5 -0.773438 1.5 -0.671875 C 1.5 -0.546875 1.523438 -0.457031 1.578125 -0.40625 C 1.640625 -0.351562 1.734375 -0.328125 1.859375 -0.328125 C 2.109375 -0.328125 2.4375 -0.453125 2.84375 -0.703125 C 3.257812 -0.953125 3.738281 -1.320312 4.28125 -1.8125 C 4.3125 -1.832031 4.34375 -1.84375 4.375 -1.84375 C 4.40625 -1.84375 4.429688 -1.828125 4.453125 -1.796875 C 4.484375 -1.773438 4.5 -1.75 4.5 -1.71875 C 4.5 -1.675781 4.484375 -1.644531 4.453125 -1.625 C 3.878906 -1.113281 3.375 -0.726562 2.9375 -0.46875 C 2.507812 -0.207031 2.148438 -0.078125 1.859375 -0.078125 Z M 1.859375 -0.078125 "/></g></g></g><g fill="#000000" fill-opacity="1"><g transform="translate(67.766902, 28.05379)"><g><path d="M 0.390625 0.09375 C 0.140625 0.09375 -0.046875 0.0234375 -0.171875 -0.109375 C -0.304688 -0.253906 -0.375 -0.460938 -0.375 -0.734375 C -0.375 -0.878906 -0.34375 -1.023438 -0.28125 -1.171875 C -0.21875 -1.328125 -0.132812 -1.476562 -0.03125 -1.625 C 0.0703125 -1.769531 0.1875 -1.898438 0.3125 -2.015625 C 0.4375 -2.128906 0.566406 -2.21875 0.703125 -2.28125 C 0.847656 -2.351562 0.988281 -2.390625 1.125 -2.390625 C 1.257812 -2.390625 1.363281 -2.351562 1.4375 -2.28125 C 1.519531 -2.21875 1.5625 -2.125 1.5625 -2 C 1.5625 -1.882812 1.523438 -1.765625 1.453125 -1.640625 C 1.378906 -1.515625 1.289062 -1.414062 1.1875 -1.34375 C 1.164062 -1.332031 1.144531 -1.328125 1.125 -1.328125 C 1.09375 -1.328125 1.0625 -1.335938 1.03125 -1.359375 C 1.007812 -1.390625 1 -1.421875 1 -1.453125 C 1 -1.492188 1.015625 -1.523438 1.046875 -1.546875 C 1.117188 -1.597656 1.179688 -1.664062 1.234375 -1.75 C 1.285156 -1.84375 1.3125 -1.925781 1.3125 -2 C 1.3125 -2.09375 1.25 -2.140625 1.125 -2.140625 C 1.019531 -2.140625 0.910156 -2.109375 0.796875 -2.046875 C 0.679688 -1.992188 0.566406 -1.914062 0.453125 -1.8125 C 0.347656 -1.71875 0.25 -1.609375 0.15625 -1.484375 C 0.0703125 -1.359375 0.00390625 -1.226562 -0.046875 -1.09375 C -0.0976562 -0.96875 -0.125 -0.847656 -0.125 -0.734375 C -0.125 -0.523438 -0.0820312 -0.375 0 -0.28125 C 0.0820312 -0.1875 0.210938 -0.140625 0.390625 -0.140625 C 0.523438 -0.140625 0.6875 -0.179688 0.875 -0.265625 C 1.070312 -0.347656 1.289062 -0.460938 1.53125 -0.609375 C 1.78125 -0.753906 2.039062 -0.925781 2.3125 -1.125 C 2.59375 -1.332031 2.867188 -1.5625 3.140625 -1.8125 C 3.160156 -1.832031 3.191406 -1.84375 3.234375 -1.84375 C 3.265625 -1.84375 3.289062 -1.828125 3.3125 -1.796875 C 3.34375 -1.773438 3.359375 -1.75 3.359375 -1.71875 C 3.359375 -1.675781 3.34375 -1.644531 3.3125 -1.625 C 3.144531 -1.476562 2.957031 -1.328125 2.75 -1.171875 C 2.550781 -1.015625 2.34375 -0.859375 2.125 -0.703125 C 1.914062 -0.554688 1.703125 -0.421875 1.484375 -0.296875 C 1.273438 -0.171875 1.078125 -0.0703125 0.890625 0 C 0.703125 0.0625 0.535156 0.09375 0.390625 0.09375 Z M 0.390625 0.09375 "/></g></g></g><g fill="#000000" fill-opacity="1"><g transform="translate(72.365282, 28.05379)"><g><path d="M -1.34375 1.359375 C -1.425781 1.359375 -1.472656 1.320312 -1.484375 1.25 C -1.492188 1.175781 -1.476562 1.09375 -1.4375 1 C -1.34375 0.78125 -1.222656 0.535156 -1.078125 0.265625 C -0.941406 0.00390625 -0.789062 -0.273438 -0.625 -0.578125 C -0.457031 -0.878906 -0.273438 -1.179688 -0.078125 -1.484375 C 0.105469 -1.796875 0.296875 -2.097656 0.484375 -2.390625 C 0.679688 -2.691406 0.875 -2.976562 1.0625 -3.25 C 0.675781 -3.195312 0.304688 -3.140625 -0.046875 -3.078125 C -0.398438 -3.015625 -0.71875 -2.953125 -1 -2.890625 C -1.007812 -2.878906 -1.019531 -2.875 -1.03125 -2.875 C -1.0625 -2.875 -1.085938 -2.882812 -1.109375 -2.90625 C -1.140625 -2.9375 -1.15625 -2.96875 -1.15625 -3 C -1.15625 -3.070312 -1.117188 -3.113281 -1.046875 -3.125 C -0.742188 -3.195312 -0.394531 -3.265625 0 -3.328125 C 0.40625 -3.398438 0.820312 -3.460938 1.25 -3.515625 C 1.375 -3.660156 1.492188 -3.804688 1.609375 -3.953125 C 1.722656 -4.109375 1.832031 -4.242188 1.9375 -4.359375 C 2.039062 -4.484375 2.132812 -4.582031 2.21875 -4.65625 C 2.25 -4.675781 2.273438 -4.6875 2.296875 -4.6875 C 2.335938 -4.6875 2.367188 -4.671875 2.390625 -4.640625 C 2.410156 -4.617188 2.421875 -4.59375 2.421875 -4.5625 C 2.421875 -4.53125 2.410156 -4.5 2.390625 -4.46875 C 2.316406 -4.40625 2.234375 -4.320312 2.140625 -4.21875 C 2.054688 -4.113281 1.960938 -4.003906 1.859375 -3.890625 C 1.765625 -3.773438 1.671875 -3.664062 1.578125 -3.5625 C 1.984375 -3.601562 2.382812 -3.628906 2.78125 -3.640625 C 3.175781 -3.648438 3.539062 -3.640625 3.875 -3.609375 C 3.90625 -3.609375 3.929688 -3.597656 3.953125 -3.578125 C 3.972656 -3.554688 3.984375 -3.523438 3.984375 -3.484375 C 3.984375 -3.453125 3.972656 -3.421875 3.953125 -3.390625 C 3.929688 -3.367188 3.898438 -3.359375 3.859375 -3.359375 L 3.84375 -3.359375 C 3.488281 -3.398438 3.097656 -3.410156 2.671875 -3.390625 C 2.253906 -3.367188 1.828125 -3.332031 1.390625 -3.28125 C 1.210938 -3.03125 1.03125 -2.765625 0.84375 -2.484375 C 0.65625 -2.203125 0.46875 -1.914062 0.28125 -1.625 C 0.101562 -1.332031 -0.0664062 -1.039062 -0.234375 -0.75 C -0.410156 -0.457031 -0.570312 -0.175781 -0.71875 0.09375 C -0.863281 0.363281 -0.988281 0.613281 -1.09375 0.84375 C -1.019531 0.875 -1.003906 0.925781 -1.046875 1 C -1.085938 1.09375 -1.132812 1.175781 -1.1875 1.25 C -1.238281 1.320312 -1.289062 1.359375 -1.34375 1.359375 Z M -1.34375 1.359375 "/></g></g></g><g fill="#000000" fill-opacity="1"><g transform="translate(75.828963, 28.05379)"><g><path d="M 1.0625 -2.90625 C 1.03125 -2.90625 1 -2.914062 0.96875 -2.9375 C 0.945312 -2.96875 0.9375 -3 0.9375 -3.03125 C 0.9375 -3.0625 0.945312 -3.085938 0.96875 -3.109375 C 1 -3.140625 1.03125 -3.175781 1.0625 -3.21875 C 1.101562 -3.257812 1.132812 -3.300781 1.15625 -3.34375 C 1.175781 -3.375 1.207031 -3.390625 1.25 -3.390625 C 1.289062 -3.390625 1.320312 -3.375 1.34375 -3.34375 C 1.363281 -3.320312 1.375 -3.296875 1.375 -3.265625 C 1.375 -3.234375 1.363281 -3.207031 1.34375 -3.1875 L 1.171875 -2.953125 C 1.140625 -2.921875 1.101562 -2.90625 1.0625 -2.90625 Z M 0.28125 -0.078125 C 0.09375 -0.078125 -0.0507812 -0.128906 -0.15625 -0.234375 C -0.257812 -0.335938 -0.3125 -0.484375 -0.3125 -0.671875 C -0.3125 -0.796875 -0.28125 -0.9375 -0.21875 -1.09375 C -0.164062 -1.25 -0.0976562 -1.40625 -0.015625 -1.5625 C 0.0664062 -1.71875 0.15625 -1.867188 0.25 -2.015625 C 0.34375 -2.160156 0.425781 -2.28125 0.5 -2.375 C 0.519531 -2.40625 0.550781 -2.421875 0.59375 -2.421875 C 0.632812 -2.421875 0.664062 -2.410156 0.6875 -2.390625 C 0.707031 -2.367188 0.71875 -2.335938 0.71875 -2.296875 C 0.71875 -2.265625 0.710938 -2.242188 0.703125 -2.234375 C 0.597656 -2.097656 0.5 -1.957031 0.40625 -1.8125 C 0.3125 -1.664062 0.226562 -1.519531 0.15625 -1.375 C 0.09375 -1.238281 0.0390625 -1.109375 0 -0.984375 C -0.0390625 -0.859375 -0.0625 -0.753906 -0.0625 -0.671875 C -0.0625 -0.546875 -0.0351562 -0.457031 0.015625 -0.40625 C 0.0664062 -0.351562 0.15625 -0.328125 0.28125 -0.328125 C 0.539062 -0.328125 0.875 -0.453125 1.28125 -0.703125 C 1.695312 -0.953125 2.175781 -1.320312 2.71875 -1.8125 C 2.738281 -1.832031 2.765625 -1.84375 2.796875 -1.84375 C 2.835938 -1.84375 2.867188 -1.828125 2.890625 -1.796875 C 2.910156 -1.773438 2.921875 -1.75 2.921875 -1.71875 C 2.921875 -1.675781 2.90625 -1.644531 2.875 -1.625 C 2.3125 -1.113281 1.8125 -0.726562 1.375 -0.46875 C 0.945312 -0.207031 0.582031 -0.078125 0.28125 -0.078125 Z M 0.28125 -0.078125 "/></g></g></g><g fill="#000000" fill-opacity="1"><g transform="translate(79.993485, 28.05379)"><g><path d="M 0.03125 -0.015625 C -0.113281 -0.015625 -0.226562 -0.0546875 -0.3125 -0.140625 C -0.40625 -0.234375 -0.453125 -0.359375 -0.453125 -0.515625 C -0.453125 -0.660156 -0.425781 -0.804688 -0.375 -0.953125 C -0.332031 -1.109375 -0.265625 -1.257812 -0.171875 -1.40625 C -0.078125 -1.550781 0.0234375 -1.675781 0.140625 -1.78125 C 0.191406 -1.84375 0.234375 -1.859375 0.265625 -1.828125 L 0.296875 -1.78125 C 0.347656 -1.96875 0.4375 -2.113281 0.5625 -2.21875 C 0.695312 -2.332031 0.847656 -2.390625 1.015625 -2.390625 C 1.171875 -2.390625 1.289062 -2.335938 1.375 -2.234375 C 1.46875 -2.140625 1.515625 -2.007812 1.515625 -1.84375 C 1.515625 -1.664062 1.472656 -1.472656 1.390625 -1.265625 C 1.304688 -1.066406 1.195312 -0.878906 1.0625 -0.703125 C 1.113281 -0.691406 1.175781 -0.6875 1.25 -0.6875 C 1.4375 -0.6875 1.617188 -0.71875 1.796875 -0.78125 C 1.972656 -0.84375 2.132812 -0.921875 2.28125 -1.015625 C 2.4375 -1.109375 2.570312 -1.203125 2.6875 -1.296875 C 2.8125 -1.398438 2.910156 -1.492188 2.984375 -1.578125 C 3.066406 -1.671875 3.128906 -1.742188 3.171875 -1.796875 C 3.191406 -1.828125 3.222656 -1.84375 3.265625 -1.84375 C 3.296875 -1.84375 3.320312 -1.828125 3.34375 -1.796875 C 3.375 -1.773438 3.390625 -1.75 3.390625 -1.71875 C 3.390625 -1.6875 3.378906 -1.660156 3.359375 -1.640625 C 3.328125 -1.585938 3.265625 -1.515625 3.171875 -1.421875 C 3.085938 -1.328125 2.976562 -1.222656 2.84375 -1.109375 C 2.71875 -1.003906 2.570312 -0.898438 2.40625 -0.796875 C 2.238281 -0.691406 2.054688 -0.601562 1.859375 -0.53125 C 1.660156 -0.46875 1.457031 -0.4375 1.25 -0.4375 C 1.113281 -0.4375 0.988281 -0.457031 0.875 -0.5 C 0.75 -0.351562 0.609375 -0.234375 0.453125 -0.140625 C 0.304688 -0.0546875 0.164062 -0.015625 0.03125 -0.015625 Z M 0.8125 -0.796875 C 0.945312 -0.960938 1.054688 -1.140625 1.140625 -1.328125 C 1.222656 -1.515625 1.265625 -1.6875 1.265625 -1.84375 C 1.265625 -2.039062 1.179688 -2.140625 1.015625 -2.140625 C 0.867188 -2.140625 0.742188 -2.078125 0.640625 -1.953125 C 0.546875 -1.828125 0.5 -1.664062 0.5 -1.46875 C 0.5 -1.144531 0.601562 -0.921875 0.8125 -0.796875 Z M 0.03125 -0.25 C 0.125 -0.25 0.222656 -0.28125 0.328125 -0.34375 C 0.441406 -0.414062 0.550781 -0.503906 0.65625 -0.609375 C 0.519531 -0.691406 0.414062 -0.804688 0.34375 -0.953125 C 0.28125 -1.097656 0.25 -1.269531 0.25 -1.46875 C 0.25 -1.488281 0.25 -1.503906 0.25 -1.515625 C 0.25 -1.523438 0.25 -1.535156 0.25 -1.546875 C 0.113281 -1.410156 0.00390625 -1.25 -0.078125 -1.0625 C -0.160156 -0.875 -0.203125 -0.691406 -0.203125 -0.515625 C -0.203125 -0.335938 -0.121094 -0.25 0.03125 -0.25 Z M 0.03125 -0.25 "/></g></g></g><g fill="#000000" fill-opacity="1"><g transform="translate(84.63, 28.05379)"><g><path d="M 0.28125 -2.03125 C 0.351562 -2.132812 0.414062 -2.222656 0.46875 -2.296875 C 0.519531 -2.367188 0.570312 -2.4375 0.625 -2.5 C 0.6875 -2.570312 0.753906 -2.609375 0.828125 -2.609375 C 0.859375 -2.609375 0.882812 -2.597656 0.90625 -2.578125 C 0.9375 -2.566406 0.953125 -2.539062 0.953125 -2.5 C 0.953125 -2.445312 0.925781 -2.390625 0.875 -2.328125 C 0.832031 -2.265625 0.773438 -2.195312 0.703125 -2.125 C 0.640625 -2.0625 0.578125 -1.992188 0.515625 -1.921875 C 0.335938 -1.679688 0.175781 -1.453125 0.03125 -1.234375 C -0.101562 -1.023438 -0.21875 -0.835938 -0.3125 -0.671875 C -0.351562 -0.597656 -0.363281 -0.546875 -0.34375 -0.515625 C -0.332031 -0.492188 -0.285156 -0.519531 -0.203125 -0.59375 C -0.148438 -0.632812 -0.0976562 -0.675781 -0.046875 -0.71875 C -0.00390625 -0.769531 0.0390625 -0.820312 0.09375 -0.875 C 0.457031 -1.238281 0.765625 -1.53125 1.015625 -1.75 C 1.273438 -1.976562 1.492188 -2.140625 1.671875 -2.234375 C 1.859375 -2.335938 2.015625 -2.390625 2.140625 -2.390625 C 2.234375 -2.390625 2.304688 -2.363281 2.359375 -2.3125 C 2.410156 -2.257812 2.4375 -2.179688 2.4375 -2.078125 C 2.4375 -1.984375 2.410156 -1.863281 2.359375 -1.71875 C 2.316406 -1.570312 2.269531 -1.425781 2.21875 -1.28125 C 2.164062 -1.132812 2.113281 -0.988281 2.0625 -0.84375 C 2.019531 -0.707031 2 -0.585938 2 -0.484375 C 2 -0.429688 2.007812 -0.394531 2.03125 -0.375 C 2.050781 -0.351562 2.082031 -0.34375 2.125 -0.34375 C 2.257812 -0.34375 2.410156 -0.382812 2.578125 -0.46875 C 2.753906 -0.550781 2.9375 -0.660156 3.125 -0.796875 C 3.320312 -0.941406 3.519531 -1.097656 3.71875 -1.265625 C 3.925781 -1.441406 4.132812 -1.625 4.34375 -1.8125 C 4.363281 -1.832031 4.390625 -1.84375 4.421875 -1.84375 C 4.453125 -1.84375 4.476562 -1.828125 4.5 -1.796875 C 4.53125 -1.773438 4.546875 -1.75 4.546875 -1.71875 C 4.546875 -1.675781 4.53125 -1.644531 4.5 -1.625 C 4.300781 -1.445312 4.09375 -1.265625 3.875 -1.078125 C 3.664062 -0.898438 3.457031 -0.738281 3.25 -0.59375 C 3.039062 -0.445312 2.835938 -0.328125 2.640625 -0.234375 C 2.453125 -0.140625 2.28125 -0.09375 2.125 -0.09375 C 2.007812 -0.09375 1.921875 -0.128906 1.859375 -0.203125 C 1.796875 -0.273438 1.765625 -0.367188 1.765625 -0.484375 C 1.765625 -0.609375 1.785156 -0.75 1.828125 -0.90625 C 1.878906 -1.0625 1.929688 -1.21875 1.984375 -1.375 C 2.035156 -1.519531 2.082031 -1.648438 2.125 -1.765625 C 2.164062 -1.890625 2.1875 -1.992188 2.1875 -2.078125 C 2.1875 -2.109375 2.175781 -2.128906 2.15625 -2.140625 C 2.132812 -2.148438 2.113281 -2.15625 2.09375 -2.15625 C 2.007812 -2.15625 1.890625 -2.101562 1.734375 -2 C 1.578125 -1.90625 1.378906 -1.75 1.140625 -1.53125 C 0.898438 -1.320312 0.609375 -1.046875 0.265625 -0.703125 C 0.046875 -0.484375 -0.128906 -0.3125 -0.265625 -0.1875 C -0.398438 -0.0703125 -0.503906 -0.015625 -0.578125 -0.015625 C -0.628906 -0.015625 -0.671875 -0.03125 -0.703125 -0.0625 C -0.742188 -0.101562 -0.765625 -0.148438 -0.765625 -0.203125 C -0.765625 -0.285156 -0.71875 -0.414062 -0.625 -0.59375 C -0.539062 -0.78125 -0.421875 -0.992188 -0.265625 -1.234375 C -0.109375 -1.484375 0.0703125 -1.75 0.28125 -2.03125 Z M 0.28125 -2.03125 "/></g></g></g><g fill="#000000" fill-opacity="1"><g transform="translate(90.420288, 28.05379)"><g/></g></g><g fill="#000000" fill-opacity="1"><g transform="translate(94.842267, 28.05379)"><g><path d="M 6.734375 1.703125 C 6.722656 1.660156 6.71875 1.625 6.71875 1.59375 C 6.726562 1.570312 6.742188 1.546875 6.765625 1.515625 C 6.785156 1.484375 6.816406 1.445312 6.859375 1.40625 C 6.898438 1.375 6.941406 1.347656 6.984375 1.328125 C 7.035156 1.304688 7.078125 1.300781 7.109375 1.3125 C 7.191406 1.332031 7.222656 1.378906 7.203125 1.453125 C 7.191406 1.523438 7.15625 1.597656 7.09375 1.671875 C 6.957031 1.816406 6.8125 1.921875 6.65625 1.984375 C 6.5 2.054688 6.320312 2.09375 6.125 2.09375 C 5.96875 2.09375 5.773438 2.066406 5.546875 2.015625 C 5.316406 1.972656 5.066406 1.910156 4.796875 1.828125 C 4.535156 1.753906 4.265625 1.671875 3.984375 1.578125 C 3.703125 1.484375 3.425781 1.382812 3.15625 1.28125 C 2.789062 1.15625 2.445312 1.035156 2.125 0.921875 C 1.800781 0.816406 1.535156 0.742188 1.328125 0.703125 C 1.140625 1.023438 0.976562 1.253906 0.84375 1.390625 C 0.71875 1.523438 0.597656 1.601562 0.484375 1.625 C 0.347656 1.65625 0.234375 1.628906 0.140625 1.546875 C 0.046875 1.472656 0 1.367188 0 1.234375 C 0 1.085938 0.046875 0.953125 0.140625 0.828125 C 0.242188 0.710938 0.375 0.613281 0.53125 0.53125 C 0.6875 0.457031 0.851562 0.421875 1.03125 0.421875 C 1.082031 0.421875 1.132812 0.425781 1.1875 0.4375 C 1.289062 0.25 1.40625 0.0273438 1.53125 -0.21875 C 1.664062 -0.46875 1.816406 -0.757812 1.984375 -1.09375 C 2.128906 -1.394531 2.28125 -1.703125 2.4375 -2.015625 C 2.601562 -2.328125 2.769531 -2.632812 2.9375 -2.9375 C 3.101562 -3.238281 3.269531 -3.519531 3.4375 -3.78125 C 3.613281 -4.039062 3.785156 -4.269531 3.953125 -4.46875 C 4.128906 -4.664062 4.300781 -4.820312 4.46875 -4.9375 C 4.644531 -5.050781 4.820312 -5.109375 5 -5.109375 C 5.050781 -5.109375 5.085938 -5.09375 5.109375 -5.0625 C 5.140625 -5.039062 5.15625 -5.015625 5.15625 -4.984375 C 5.15625 -4.953125 5.144531 -4.921875 5.125 -4.890625 C 5.113281 -4.859375 5.082031 -4.835938 5.03125 -4.828125 C 4.96875 -4.804688 4.898438 -4.789062 4.828125 -4.78125 C 4.753906 -4.769531 4.679688 -4.75 4.609375 -4.71875 C 4.453125 -4.625 4.289062 -4.484375 4.125 -4.296875 C 3.96875 -4.109375 3.804688 -3.882812 3.640625 -3.625 C 3.472656 -3.375 3.304688 -3.101562 3.140625 -2.8125 C 2.984375 -2.519531 2.828125 -2.21875 2.671875 -1.90625 C 2.515625 -1.59375 2.359375 -1.285156 2.203125 -0.984375 C 2.046875 -0.671875 1.90625 -0.394531 1.78125 -0.15625 C 1.664062 0.0820312 1.554688 0.296875 1.453125 0.484375 C 1.679688 0.535156 1.953125 0.613281 2.265625 0.71875 C 2.578125 0.820312 2.898438 0.929688 3.234375 1.046875 C 3.503906 1.140625 3.773438 1.234375 4.046875 1.328125 C 4.328125 1.429688 4.597656 1.519531 4.859375 1.59375 C 5.117188 1.675781 5.359375 1.738281 5.578125 1.78125 C 5.796875 1.820312 5.976562 1.84375 6.125 1.84375 C 6.257812 1.84375 6.378906 1.828125 6.484375 1.796875 C 6.585938 1.773438 6.671875 1.742188 6.734375 1.703125 Z M 0.4375 1.390625 C 0.507812 1.367188 0.59375 1.304688 0.6875 1.203125 C 0.78125 1.097656 0.898438 0.921875 1.046875 0.671875 L 1.03125 0.671875 C 0.894531 0.671875 0.765625 0.695312 0.640625 0.75 C 0.523438 0.800781 0.429688 0.867188 0.359375 0.953125 C 0.285156 1.046875 0.25 1.140625 0.25 1.234375 C 0.25 1.296875 0.265625 1.335938 0.296875 1.359375 C 0.328125 1.390625 0.375 1.398438 0.4375 1.390625 Z M 0.4375 1.390625 "/></g></g></g><g fill="#000000" fill-opacity="1"><g transform="translate(101.147458, 28.05379)"><g><path d="M -1.34375 1.359375 C -1.425781 1.359375 -1.472656 1.320312 -1.484375 1.25 C -1.492188 1.175781 -1.476562 1.09375 -1.4375 1 C -1.34375 0.78125 -1.222656 0.535156 -1.078125 0.265625 C -0.941406 0.00390625 -0.789062 -0.273438 -0.625 -0.578125 C -0.457031 -0.878906 -0.273438 -1.179688 -0.078125 -1.484375 C 0.105469 -1.796875 0.296875 -2.097656 0.484375 -2.390625 C 0.679688 -2.691406 0.875 -2.976562 1.0625 -3.25 C 0.675781 -3.195312 0.304688 -3.140625 -0.046875 -3.078125 C -0.398438 -3.015625 -0.71875 -2.953125 -1 -2.890625 C -1.007812 -2.878906 -1.019531 -2.875 -1.03125 -2.875 C -1.0625 -2.875 -1.085938 -2.882812 -1.109375 -2.90625 C -1.140625 -2.9375 -1.15625 -2.96875 -1.15625 -3 C -1.15625 -3.070312 -1.117188 -3.113281 -1.046875 -3.125 C -0.742188 -3.195312 -0.394531 -3.265625 0 -3.328125 C 0.40625 -3.398438 0.820312 -3.460938 1.25 -3.515625 C 1.375 -3.660156 1.492188 -3.804688 1.609375 -3.953125 C 1.722656 -4.109375 1.832031 -4.242188 1.9375 -4.359375 C 2.039062 -4.484375 2.132812 -4.582031 2.21875 -4.65625 C 2.25 -4.675781 2.273438 -4.6875 2.296875 -4.6875 C 2.335938 -4.6875 2.367188 -4.671875 2.390625 -4.640625 C 2.410156 -4.617188 2.421875 -4.59375 2.421875 -4.5625 C 2.421875 -4.53125 2.410156 -4.5 2.390625 -4.46875 C 2.316406 -4.40625 2.234375 -4.320312 2.140625 -4.21875 C 2.054688 -4.113281 1.960938 -4.003906 1.859375 -3.890625 C 1.765625 -3.773438 1.671875 -3.664062 1.578125 -3.5625 C 1.984375 -3.601562 2.382812 -3.628906 2.78125 -3.640625 C 3.175781 -3.648438 3.539062 -3.640625 3.875 -3.609375 C 3.90625 -3.609375 3.929688 -3.597656 3.953125 -3.578125 C 3.972656 -3.554688 3.984375 -3.523438 3.984375 -3.484375 C 3.984375 -3.453125 3.972656 -3.421875 3.953125 -3.390625 C 3.929688 -3.367188 3.898438 -3.359375 3.859375 -3.359375 L 3.84375 -3.359375 C 3.488281 -3.398438 3.097656 -3.410156 2.671875 -3.390625 C 2.253906 -3.367188 1.828125 -3.332031 1.390625 -3.28125 C 1.210938 -3.03125 1.03125 -2.765625 0.84375 -2.484375 C 0.65625 -2.203125 0.46875 -1.914062 0.28125 -1.625 C 0.101562 -1.332031 -0.0664062 -1.039062 -0.234375 -0.75 C -0.410156 -0.457031 -0.570312 -0.175781 -0.71875 0.09375 C -0.863281 0.363281 -0.988281 0.613281 -1.09375 0.84375 C -1.019531 0.875 -1.003906 0.925781 -1.046875 1 C -1.085938 1.09375 -1.132812 1.175781 -1.1875 1.25 C -1.238281 1.320312 -1.289062 1.359375 -1.34375 1.359375 Z M -1.34375 1.359375 "/></g></g></g><g fill="#000000" fill-opacity="1"><g transform="translate(104.611139, 28.05379)"><g><path d="M -0.375 -0.03125 C -0.613281 -0.03125 -0.734375 -0.148438 -0.734375 -0.390625 C -0.734375 -0.515625 -0.703125 -0.648438 -0.640625 -0.796875 C -0.578125 -0.941406 -0.488281 -1.085938 -0.375 -1.234375 C -0.269531 -1.390625 -0.148438 -1.535156 -0.015625 -1.671875 C 0.117188 -1.816406 0.257812 -1.941406 0.40625 -2.046875 C 0.5625 -2.148438 0.710938 -2.234375 0.859375 -2.296875 C 1.015625 -2.359375 1.15625 -2.390625 1.28125 -2.390625 C 1.5 -2.390625 1.644531 -2.289062 1.71875 -2.09375 C 1.8125 -2.34375 1.921875 -2.597656 2.046875 -2.859375 C 2.179688 -3.128906 2.320312 -3.382812 2.46875 -3.625 C 2.613281 -3.863281 2.765625 -4.078125 2.921875 -4.265625 C 3.085938 -4.453125 3.25 -4.597656 3.40625 -4.703125 C 3.5625 -4.816406 3.707031 -4.875 3.84375 -4.875 C 3.945312 -4.875 4.03125 -4.84375 4.09375 -4.78125 C 4.15625 -4.726562 4.1875 -4.648438 4.1875 -4.546875 C 4.1875 -4.441406 4.140625 -4.304688 4.046875 -4.140625 C 3.953125 -3.972656 3.828125 -3.78125 3.671875 -3.5625 C 3.515625 -3.351562 3.332031 -3.128906 3.125 -2.890625 C 2.914062 -2.660156 2.691406 -2.421875 2.453125 -2.171875 C 2.222656 -1.929688 1.988281 -1.703125 1.75 -1.484375 C 1.65625 -1.191406 1.609375 -0.945312 1.609375 -0.75 C 1.609375 -0.46875 1.722656 -0.328125 1.953125 -0.328125 C 2.210938 -0.328125 2.546875 -0.453125 2.953125 -0.703125 C 3.367188 -0.953125 3.847656 -1.320312 4.390625 -1.8125 C 4.410156 -1.832031 4.4375 -1.84375 4.46875 -1.84375 C 4.507812 -1.84375 4.539062 -1.828125 4.5625 -1.796875 C 4.582031 -1.773438 4.59375 -1.75 4.59375 -1.71875 C 4.59375 -1.675781 4.578125 -1.644531 4.546875 -1.625 C 3.984375 -1.113281 3.484375 -0.726562 3.046875 -0.46875 C 2.617188 -0.207031 2.253906 -0.078125 1.953125 -0.078125 C 1.765625 -0.078125 1.617188 -0.132812 1.515625 -0.25 C 1.410156 -0.375 1.359375 -0.539062 1.359375 -0.75 C 1.359375 -0.875 1.378906 -1.019531 1.421875 -1.1875 C 1.171875 -0.96875 0.925781 -0.769531 0.6875 -0.59375 C 0.457031 -0.414062 0.25 -0.273438 0.0625 -0.171875 C -0.113281 -0.078125 -0.257812 -0.03125 -0.375 -0.03125 Z M 1.921875 -2 C 2.179688 -2.257812 2.429688 -2.515625 2.671875 -2.765625 C 2.910156 -3.023438 3.125 -3.269531 3.3125 -3.5 C 3.5 -3.738281 3.648438 -3.945312 3.765625 -4.125 C 3.878906 -4.3125 3.9375 -4.453125 3.9375 -4.546875 C 3.9375 -4.566406 3.925781 -4.582031 3.90625 -4.59375 C 3.894531 -4.613281 3.875 -4.625 3.84375 -4.625 C 3.726562 -4.625 3.597656 -4.570312 3.453125 -4.46875 C 3.316406 -4.363281 3.175781 -4.222656 3.03125 -4.046875 C 2.894531 -3.867188 2.757812 -3.664062 2.625 -3.4375 C 2.488281 -3.21875 2.359375 -2.984375 2.234375 -2.734375 C 2.117188 -2.484375 2.015625 -2.238281 1.921875 -2 Z M -0.375 -0.265625 C -0.300781 -0.265625 -0.195312 -0.300781 -0.0625 -0.375 C 0.0703125 -0.445312 0.222656 -0.546875 0.390625 -0.671875 C 0.566406 -0.796875 0.75 -0.941406 0.9375 -1.109375 C 1.132812 -1.273438 1.335938 -1.453125 1.546875 -1.640625 C 1.546875 -1.648438 1.546875 -1.65625 1.546875 -1.65625 C 1.546875 -1.664062 1.546875 -1.671875 1.546875 -1.671875 C 1.515625 -1.671875 1.5 -1.710938 1.5 -1.796875 C 1.507812 -2.023438 1.4375 -2.140625 1.28125 -2.140625 C 1.15625 -2.140625 1.015625 -2.097656 0.859375 -2.015625 C 0.703125 -1.941406 0.546875 -1.835938 0.390625 -1.703125 C 0.234375 -1.578125 0.0859375 -1.4375 -0.046875 -1.28125 C -0.179688 -1.125 -0.285156 -0.96875 -0.359375 -0.8125 C -0.441406 -0.65625 -0.484375 -0.515625 -0.484375 -0.390625 C -0.484375 -0.335938 -0.472656 -0.300781 -0.453125 -0.28125 C -0.441406 -0.269531 -0.414062 -0.265625 -0.375 -0.265625 Z M -0.375 -0.265625 "/></g></g></g></svg>